<?xml version="1.0" encoding="utf-8"?>
<!-- Generator: Adobe Illustrator 19.0.0, SVG Export Plug-In . SVG Version: 6.00 Build 0)  -->
<svg version="1.1" xmlns="http://www.w3.org/2000/svg" xmlns:xlink="http://www.w3.org/1999/xlink" x="0px" y="0px"
	 viewBox="0 0 1869.5 957.7" style="enable-background:new 0 0 1869.5 957.7;" xml:space="preserve">
<style type="text/css">
	.st0{display:none;}
	.st1{display:inline;}
	.st2{fill:#ED1C24;}
	.st3{fill:#FFF200;}
	.st4{fill:#00A651;}
	.st5{fill:#00AEEF;}
	.st6{fill:#2E3192;}
	.st7{fill:#EC008C;}
	.st8{fill:#BE1E2D;}
	.st9{fill:#EF4136;}
	.st10{fill:#F15A29;}
	.st11{fill:#F7941E;}
	.st12{fill:#FBB040;}
	.st13{fill:#F9ED32;}
	.st14{fill:#D7DF23;}
	.st15{fill:#8DC63F;}
	.st16{fill:#39B54A;}
	.st17{fill:#009444;}
	.st18{fill:#006838;}
	.st19{fill:#2BB673;}
	.st20{fill:#00A79D;}
	.st21{fill:#27AAE1;}
	.st22{fill:#1C75BC;}
	.st23{fill:#2B3990;}
	.st24{fill:#262262;}
	.st25{fill:#662D91;}
	.st26{fill:#92278F;}
	.st27{fill:#9E1F63;}
	.st28{fill:#DA1C5C;}
	.st29{fill:#EE2A7B;}
	.st30{fill:#C2B59B;}
	.st31{fill:#9B8579;}
	.st32{fill:#726658;}
	.st33{fill:#594A42;}
	.st34{fill:#C49A6C;}
	.st35{fill:#A97C50;}
	.st36{fill:#8B5E3C;}
	.st37{fill:#754C29;}
	.st38{fill:#603913;}
	.st39{fill:#3C2415;}
	.st40{fill:none;stroke:#000000;stroke-miterlimit:10;}
	.st41{fill:none;stroke:#000000;stroke-linecap:round;stroke-linejoin:round;stroke-miterlimit:10;}
</style>
<g id="assets" class="st0">
	<g id="trip_sketches" class="st1">
		<g id="May_3_2015_2_" class="st0">
			<g id="XMLID_287_" class="st1">
				<path id="XMLID_291_" d="M551.2,565.8c0.3-1.8,0.4-4,2.2-4.7c1.9-0.7,3.8,0.6,2.6,2.8c-1.6,2.9-8,4.1-10.9,5.1
					c-8,2.8-16.1,5.2-24.4,7.3c-17.2,4.4-34.7,7.3-52.2,10c-17.9,2.7-35.9,5.2-53.7,8.5c-15.6,2.9-31.8,5.9-46.2,12.8
					c-7.3,3.4-13.6,8-19.3,13.6c-5.9,5.8-11.5,12.2-19.8,14.5c0.9,0.4,1.9,0.8,2.8,1.1c-20-38.3-20.9-82.9-31.2-124.2
					c-7.2-29.1-15.6-57.9-23.8-86.7c-2.3-7.8-4.5-15.7-6.8-23.5c-0.9-3.1-5.7-1.8-4.8,1.3c6,20.4,11.9,40.9,17.6,61.4
					c4.2,14.9,8.3,29.8,12.1,44.8c4.8,18.9,8,38,11.3,57.2c4.3,24.8,9.6,49.6,21.4,72.1c0.5,1,1.8,1.4,2.8,1.1
					c7.6-2.1,13.4-7.2,18.9-12.6c6.5-6.5,13.1-12,21.5-16c18.3-8.6,39.6-11.5,59.4-14.8c40.8-6.7,82.8-10.4,121.7-25.4
					c5.7-2.2,13.8-8.2,6.9-14.1c-2.2-1.9-5.3-2.5-8.1-1.4c-3.2,1.3-4.2,5.1-4.7,8.2C545.9,567.6,550.7,569,551.2,565.8L551.2,565.8z
					"/>
			</g>
		</g>
		<g id="May_6_2015_2_" class="st0">
			<g id="XMLID_281_" class="st1">
				<path id="XMLID_285_" class="st2" d="M552,565.4c-29,14.2-58.9,26.6-89.4,37.1c-15,5.2-30.6,11.2-46.5,13.1
					c-7.5,0.9-15,1.1-22.5,2.3c-6.9,1.1-13.6,3.3-20.1,5.8c-14.9,5.7-30.4,13.5-46.8,10.3c-1.4-0.3-3.4,0.7-3.2,2.4
					c2.6,20.8,14.9,37.5,26.4,54.3c5.9,8.6,11.7,17.4,15.8,27c5,11.8,6,24.3,7.2,36.9c1.3,12.6,4,24,9.3,35.6
					c2.6,5.7,5.4,11.3,7.4,17.2c2.4,6.9,3.1,14.1,3.7,21.3c0.4,5.9,0.8,11.8,2,17.6c1.3,6.5,5.6,13.9,3.2,20.5
					c-5.2,14-18.4-9.9-24.5,3.2c-1.5,3.1-2.6,8.8-0.3,11.7c2.8,3.5,10.2,3.2,14.1,2.7c10.3-1.1,5.9-16.4-1.1-19.4
					c-2.9-1.2-5.5,3.1-2.5,4.3c2.8,1.2,5.2,4.7,4.6,8c-0.6,3-3.7,2.1-6.1,2c-3.3-0.2-6.7-0.8-4.8-5.1c0.7-1.5-0.6-4.2,4-2.7
					c0.6,0.2,2.4,1.9,3.1,2.3c6.7,4.3,14.4,3.2,17.8-4.5c4.1-9.3-2.3-20-3.5-29.4c-1.4-10.8-1-21.8-4.3-32.3
					c-3.3-10.7-9.4-20.3-12.9-30.9c-3.8-11.2-4.1-23.1-5.4-34.8c-2.2-19.2-9.7-35-20.5-50.9c-11.4-16.9-25.1-33.9-27.8-54.8
					c-1.1,0.8-2.1,1.6-3.2,2.4c13.7,2.7,26.7-1.4,39.4-6.3c6.7-2.6,13.3-5.4,20.2-7.5c8.3-2.5,16.8-3.1,25.4-3.9
					c16.1-1.4,31.1-6.3,46.3-11.4c15.9-5.3,31.6-11.1,47.1-17.4c17.2-7,34.1-14.5,50.7-22.6C557.4,568.3,554.9,564,552,565.4
					L552,565.4z"/>
			</g>
		</g>
		<g id="May_10_2015_2_" class="st0">
			<g id="XMLID_275_" class="st1">
				<path id="XMLID_279_" class="st3" d="M555.9,565.5c-1.6-4.8-6.6-8.2-11.5-5.9c-5.6,2.7-4.8,7.1-0.5,10.6
					c4.8,4,10.3,2.3,15.7,0.9c8.6-2.3,16.9-5.3,24.9-9.2c14.7-7.2,27.9-17.1,39-29.1c2.8-3.1,5.6-6.6,9.7-7.9
					c4.5-1.5,9.4-0.4,14-0.8c7.9-0.7,15.1-4.2,21.9-8c15.1-8.5,29.9-16.6,46.3-22.2c15.9-5.4,32.5-9,49.3-10.3
					c35-2.8,68.9,4.5,99.5,21.7c30.2,17,61.5,41.4,98.3,36.7c17.6-2.2,33.5-11.5,49.4-18.7c17-7.7,34.2-14.8,52.1-20.1
					c18.2-5.4,36.8-8.7,55.8-8.8c19.4-0.1,38.7,2.5,58,3.2c15.1,0.6,33.8,1.5,47.5-6c5.3-2.9,9.5-7.5,10.5-13.6
					c1.4-8.1-2.4-16.9-4.6-24.6c-21.7-76.5-48.2-151.5-69.4-228.1c-2.6-9.5-5.2-19-7.6-28.5c-0.3-1.3-1.8-2.1-3.1-1.7
					c-15,4.5-30,9.1-45.1,13.6c1,0.6,2.1,1.2,3.1,1.7c-3.7-16.6-27.4-16.3-30.3,0.5c-0.2,1,0.1,2.3,1.1,2.8
					c6.4,3.1,13.4,2.1,18.6-2.7c2.4-2.2-1.2-5.7-3.5-3.5c-3.5,3.3-8.2,4-12.5,1.9c0.4,0.9,0.8,1.9,1.1,2.8c2-11.8,18-12.4,20.7-0.5
					c0.3,1.3,1.8,2.1,3.1,1.7c15-4.5,30-9.1,45.1-13.6c-1-0.6-2.1-1.2-3.1-1.7c18.3,71.4,42.2,141.2,63.7,211.6
					c5.3,17.5,10.6,35,15.5,52.6c2.2,8.1,4.9,17.1-2.8,23.1c-5.7,4.5-13.5,5.7-20.5,6.5c-35.6,4-71.1-5.5-106.7-1.1
					c-33.1,4.1-64.2,16.8-94.2,30.6c-16,7.3-31.9,16.1-49.9,16.3c-17.5,0.2-34.5-6.3-49.8-14.3c-15.4-8.2-29.8-18.1-45.3-26.2
					c-13.5-7-27.9-12.2-42.9-15.3c-29.4-6.1-60.2-4.4-89.1,3.3c-14.8,4-29.3,9.6-43,16.6c-6.9,3.5-13.4,7.7-20.2,11.4
					c-7.8,4.2-15.1,6.3-23.9,6.2c-7.1-0.1-12.3,1.7-17.4,6.8c-5.4,5.4-10.4,11-16.4,15.9c-12.9,10.5-27.8,18.4-43.7,23.1
					c-3.2,0.9-8,3.1-11.4,3c-0.8,0-2.9-0.7-3.7-1.2c-0.4-0.2-2.2-1.5-2.2-2c0.5-0.1,1.1-0.2,1.6-0.3c1.8-0.8,3.1,0,3.8,2.3
					C552.1,569.9,556.9,568.6,555.9,565.5L555.9,565.5z"/>
			</g>
		</g>
		<g id="May_30_2015_1_">
			<g id="XMLID_269_">
				<path id="XMLID_273_" class="st4" d="M551.5,575.6c52.9-6.2,94.4-42.1,138.3-68.9c12.1-7.4,24.6-14.6,37.9-19.5
					c14.5-5.3,28.8-5.5,44-4.3c29.9,2.4,59.8,5.5,85.5,22.3c12.3,8,23.6,17.5,36.5,24.6c12.4,6.8,25.8,11.8,39.6,14.8
					c26.7,5.8,56.1,5.7,79.1-10.6c12-8.5,22.6-17.9,37-22.1c14.6-4.3,30-4.7,45.1-5.7c31.4-2.2,63-3.7,94.4-6.9
					c16.4-1.7,32.8-4.3,48.3-10c7.1-2.6,14.3-5.7,20.6-10c1.1-0.7,2.2-1.9,3.4-2.4c2.1-0.8,4.4-0.2,6.5-0.1
					c3.7,0.1,7.5-0.3,11.2-0.8c8.1-1.1,16.2-3,23.8-6.2c3.3-1.4,6.2-3.1,8.5-5.9c2.3-2.9,4-6,6.9-8.4c5.6-4.7,12.6-7.2,18.8-11.1
					c3.4-2.2,6.6-4.6,9.8-7.1c1.8-1.4,6.8-6,8.1-6.1c-0.7-0.4-1.4-0.8-2.2-1.2c0.1,0.1,0.2,0.3,0.3,0.4c0.1-1,0.3-2,0.4-3
					c-0.1,0.1-0.2,0.2-0.3,0.3c-2,2.5,1.1,5.7,3.5,3.5c7.8-7,7.1-17,1.3-24.8c-3-4.1-4.2-8,0.3-11.4c2.6-2,5.3-3.7,7.9-5.6
					c1.9-1.4,3.8-2.7,5.7-4.2c1.1-0.9,2.1-2.2,3.7-2c0.8,0.1,2,1.3,2.8,1.6c4.2,1.4,6.3-1.3,7.6-5.1c1.6-4.5,1.8-9.1-2.7-11.5
					c-4-2.1-8.8-2.9-12.5,0.3c-3.4,3-3.3,7.6-1.3,11.4c1.5,2.8,5.8,0.3,4.3-2.5c-2.6-4.9,3.3-7.9,7-4.8c1.9,1.6,1.7,7.4-1.6,7.1
					c-2.2-0.2-3.1-2.2-5.7-1.4c-2.8,0.8-5.3,3.8-7.6,5.5c-3.5,2.5-7.1,4.9-10.6,7.5c-5.1,3.8-7,8.6-3.8,14.5
					c1.9,3.6,5.3,6.2,6.1,10.4c0.9,4.5-1,8.8-4.3,11.7c1.2,1.2,2.4,2.4,3.5,3.5c0.1-0.1,0.2-0.2,0.3-0.3c0.7-0.9,1-2,0.4-3
					c-0.1-0.1-0.2-0.3-0.3-0.4c-0.4-0.7-1.3-1.3-2.2-1.2c-4.6,0.2-9.9,6.2-13.4,8.9c-5.6,4.2-11.6,7.5-17.7,10.9
					c-4.9,2.7-9.7,5.7-13.1,10.2c-2.3,3-3.9,6-7.3,7.9c-3.8,2.2-8.5,3.4-12.8,4.6c-7.3,1.9-15.1,3.4-22.6,3.1
					c-2.4-0.1-4.9-0.6-7.3,0.1c-2.8,0.8-5.1,3.2-7.6,4.7c-13.1,7.8-28.1,12.1-43,14.9c-30.7,5.6-62.5,6.1-93.5,8.2
					c-15.7,1.1-31.5,1.8-47.1,3.5c-13.5,1.5-26.9,4.5-38.7,11.7c-11.8,7.2-21.6,17.6-34.6,22.9c-13.9,5.7-29.8,6-44.6,4.6
					c-15.1-1.4-30.1-5.3-44-11.5c-13.5-6-25.3-14.3-37.2-22.9c-11.2-8-22.6-15.2-35.6-19.7c-13.4-4.6-27.5-6.9-41.5-8.4
					c-14.7-1.6-30.2-3.8-45-2.4c-14.1,1.3-27.2,6.7-39.6,13.2c-51.6,26.7-96.4,72.9-156.5,80C548.3,570.9,548.3,575.9,551.5,575.6
					L551.5,575.6z"/>
			</g>
		</g>
		<g id="May_31_2015_2_" class="st0">
			<g id="XMLID_267_" class="st1">
				<path id="XMLID_286_" class="st5" d="M1375.2,382.4c4.9-2.4,9.7-4.8,14.6-7.2c-1-0.1-2-0.3-3-0.4c5.6,4.9,7,11.8,8,18.9
					c0.4,3.1,0.8,6.2,1.4,9.2c0.4,1.8,1.3,4,1.3,5.8c-0.1,3.5-3.1,5.1-5.8,6.2c-6.7,2.7-13.2,1.9-20.1,2.2
					c-6.5,0.2-11.7,2.9-16.8,6.8c-22.3,16.8-44.9,32.1-70.3,43.9c-6.2,2.9-12.5,5.5-18.8,8c-6,2.3-13.6,6.3-20.1,6.3
					c-2.8,0-5.4-0.8-8.1,0.3c-2,0.7-3.5,2.2-5.3,3.3c-7.1,4.3-16.2,3.4-24.2,3.5c-14.5,0.2-29.1,0.6-43.5,2.8
					c-7.3,1.1-14.5,3.1-21.9,3.7c-7.9,0.7-15.8,0.5-23.7,0.6c-7.3,0.1-14.6,0.1-21.8,0.2c-6.7,0.1-14-0.6-20.5,1.7
					c-6.3,2.2-11.8,6.1-18.3,8.1c-6.6,2.1-13.5,3.2-20.3,4.9c-5.8,1.5-11.3,3.5-16.7,6.1c-6,2.9-10.7,8-16.7,11.2
					c-12.9,7-27.9,9.9-42.5,9.7c-14.8-0.1-29.2-3.6-43.4-7.7c-14.1-4-26.9-9.2-38.7-17.9c-10.7-7.9-20.7-16.4-33.1-21.6
					c-13.1-5.5-27.3-8.1-41.3-9.9c-16.1-2.1-32.4-2.9-48.6-2.1c-15.6,0.7-30.8,1.6-45.7,6.6c-13.7,4.6-26.6,11.4-38,20.3
					c-5.6,4.3-11.1,10.5-18.3,12c-4,0.8-8.2,0.1-11.9-1.7c-1.3-0.6-2.5-1.4-3.7-2.2c-1-0.7-1.9-1.5-2.7-2.4c-1.2-1-1.8-2.4-1.8-4.1
					c-0.6-0.6-1.2-1.2-1.7-1.7c1,4.2-2.7,10-4.7,13.4c-2.2,3.9-4.9,7.6-8,10.9c-6.7,7.2-15.1,12-24,16.1
					c-9.8,4.5-19.8,8.6-29.9,12.5c-4.5,1.7-9.1,3.8-13.8,4.9c-2.2,0.5-6.5,1.3-7.8-1c-0.8-1.3-0.3-1.7,1.2-2.6
					c2.2-1.2,3.1-1.2,3.1,2.7c0.1,3.2,5.1,3.2,5,0c-0.1-4.9-2.9-10.6-8.5-8.3c-3.8,1.5-9.4,6.4-6.3,10.7c2.9,4.2,9.5,4.3,13.9,3.4
					c8.4-1.7,16.7-5.8,24.6-9c14.3-5.8,29.8-11.3,41.6-21.5c5.3-4.6,9.9-10.2,13.3-16.3c2.8-4.9,6.6-11.5,5.2-17.3
					c-0.2-0.8-0.9-1.6-1.7-1.7c-4.2-0.8-7.7,2.4-6.7,6.8c1.1,4.7,6.4,8.6,10.4,10.7c11.6,6.1,21.9,1.6,31.2-6.1
					c11.8-9.7,24.7-17.6,39.1-22.7c14.7-5.3,29.4-6.3,44.8-7.1c17.1-0.9,34.2-0.2,51.2,2.1c15.4,2.1,31.3,5.1,45.2,12.4
					c13,6.8,23.4,17.6,36.1,25c12.8,7.5,27.7,11.4,42,14.9c27.9,6.9,59.5,7.3,84.1-9.8c3-2.1,5.5-4.8,8.7-6.5
					c3.5-1.9,7.4-3.4,11.2-4.7c6.9-2.3,14.1-3.4,21.1-5.2c7-1.8,13.1-4.5,19.5-7.7c7.6-3.8,15.7-3.1,23.9-3.2
					c16.3-0.2,33.3,1,49.5-1.3c7.8-1.1,15.5-3.1,23.4-4c8.4-1,16.8-1.4,25.3-1.7c7.9-0.3,15.8,0,23.6-0.5c3.4-0.2,6.9-0.7,10.1-1.7
					c2.9-0.9,5-2.8,7.7-4.2c3.5-1.9,6.6-0.6,10.3-1c3.2-0.3,6.3-1.7,9.3-2.7c6.8-2.4,13.6-5.1,20.3-7.9c27.2-11.6,52.7-26.8,75.9-45
					c2.8-2.2,5.5-4.5,8.6-6.3c4.4-2.6,8.6-3,13.6-2.8c6.6,0.2,13.1-0.3,19.2-3.1c4.7-2.1,8.3-5.8,7.9-11.2c-0.2-3.1-1.3-6.1-1.9-9.1
					c-0.7-4-1-8-1.8-12c-1.3-6-3.7-11.5-8.4-15.6c-0.9-0.8-2-0.9-3-0.4c-4.9,2.4-9.7,4.8-14.6,7.2
					C1369.8,379.5,1372.3,383.8,1375.2,382.4L1375.2,382.4z"/>
			</g>
		</g>
		<g id="Jun_13_2015_2_" class="st0">
			<g id="XMLID_257_" class="st1">
				<path id="XMLID_261_" class="st6" d="M390.4,875.5c11.6,1.3,16.6-12.5,14.1-21.8c-2-7.5-7-13.8-9.5-21.2
					c-2.7-8.1-3-16.9-0.8-25.1c1.8-6.6-1.3-14.9-2.6-21.6c-1.6-8-3.2-16-5.1-23.9c-3.7-15.7-8.2-31.2-14.5-46.1
					c-5.6-13.4-20.1-31.4-8.1-45c10.2-11.6,28.1-14.6,42.6-17.4c17.1-3.3,33.7-7.4,50.2-13.2c16.6-5.8,33-12.1,49.5-18.2
					c4.6-1.7,9.3-3.4,13.9-5.1c3.6-1.3,8-2.4,11.1-4.8c4.7-3.7,4.4-10.1,1.4-14.8c-1.7-2.7-4.4-4.7-7.1-6.4
					c-1.8-1.1-3.6-2.1-5.3-3.4c-0.7-0.5-2.2-1.3-2.6-2c-1.2-2.4,1.1-4.6,2.8-5.6c8.3-4.8,18.8-6.3,28.2-6c-0.8-0.6-1.6-1.2-2.4-1.8
					c0.5,2.3,1,4.5,1.5,6.8c0.2,1,1.4,1.9,2.4,1.8c4.5-0.1,11.1,1.6,13.4-3.1c1.8-3.6,1.5-8.1-0.6-11.5c-4.7-7.6-15.6-6.2-19.8,1
					c-1.7,2.8,2.7,5.3,4.3,2.5c4.9-8.2,16.1-0.7,10.9,7.1c0.7-0.4,1.4-0.8,2.2-1.2c-3.4,0.1-6.9,0.2-10.3,0.3
					c0.8,0.6,1.6,1.2,2.4,1.8c-0.5-2.3-1-4.5-1.5-6.8c-0.2-1.1-1.3-1.8-2.4-1.8c-7.5-0.3-15.1,0.7-22.2,3.1
					c-4.9,1.6-12.4,4-14.3,9.5c-2.2,6.1,4.5,9.8,8.8,12.5c3.3,2.1,7.2,4.2,8.4,8.2c1.9,6.5-5,7.9-9.7,9.6
					c-16.7,6.1-33.3,12.3-50,18.4c-16.4,6-32.9,11.9-50.1,15.5c-15.5,3.3-31.6,5.1-46,12c-10.7,5.1-20.5,14.5-19.4,27.2
					c0.6,7.3,4.3,13.9,7.5,20.3c3.8,7.6,7.1,15.4,10,23.4c5.5,15.3,9.4,31.1,12.8,47c0.9,4.4,1.8,8.9,2.7,13.3
					c0.9,4.5,2.6,9.6,2.7,14.2c0.1,3.9-1.7,8.1-2,12.1c-0.3,4-0.1,8,0.6,11.9c1.5,8.7,6.2,15.6,9.6,23.6c1.7,4,2.9,8.3,1.5,12.6
					c-1.4,4.2-4.6,7.7-9.3,7.2C387.2,870.2,387.2,875.2,390.4,875.5L390.4,875.5z"/>
			</g>
		</g>
		<g id="July_10_2105_2_" class="st0">
			<g id="XMLID_251_" class="st1">
				<path id="XMLID_255_" class="st7" d="M383.6,877.5c4.5-0.8,9.1-1.5,13.6-2.3c2.6-0.5,5.3-1.1,6.7-3.6c1.4-2.5,0.7-5.5,0.2-8.1
					c-0.9-4.6-2-9.1-3.3-13.6c-5-18.5-11.5-36.5-16.1-55c-4.7-18.8-8-37.9-10.3-57.2c-1-8.5-2-17.1-4.7-25.4
					c-2.7-8.5-7.4-15.9-12.4-23.2c-11.8-17-20.3-34.7-23.9-55.2c-0.4,0.9-0.8,1.9-1.1,2.8c7.4-5,16.7-3.3,25.2-4
					c8.3-0.6,16.4-2.5,24.2-5.2c16.1-5.4,31.2-13.6,47.1-19.6c17.3-6.4,35.4-10.9,53.2-16c18.9-5.4,37.8-10.8,56.7-16.2
					c-1-0.6-2.1-1.2-3.1-1.7c5.3,12.7,25.4,3.9,24.3-8.2c-0.6-6.2-6.6-11.3-12.8-10.1c-6.5,1.2-10,7.9-8.7,14
					c0.7,3.1,5.5,1.8,4.8-1.3c-0.7-3.2,1.2-7,4.6-7.7c6.1-1.4,8.3,6.1,5.6,10.2c-2.2,3.3-10.6,7.5-12.9,1.9
					c-0.5-1.2-1.6-2.2-3.1-1.7c-18.9,5.4-37.8,10.8-56.7,16.2c-18.4,5.2-37.1,9.8-55,16.6c-16.4,6.2-31.9,14.8-48.7,20
					c-8.6,2.6-17.3,4.1-26.3,4.2c-7.4,0.1-14.7,0.1-21.1,4.4c-1,0.7-1.4,1.7-1.1,2.8c2.7,15.7,8.2,30.9,16.5,44.6
					c4.3,7.1,9.4,13.6,13.7,20.7c4.6,7.6,7.2,15.7,8.8,24.4c3.1,17.2,4.4,34.6,7.9,51.7c3.5,17.4,8.1,34.5,13.4,51.4
					c3,9.5,6,19,8.4,28.6c0.9,3.8,4.3,11.3,0,13.4c-1.8,0.9-4.9,0.9-7,1.2c-2.7,0.5-5.4,0.9-8.2,1.4
					C379.1,873.2,380.5,878,383.6,877.5L383.6,877.5z"/>
			</g>
		</g>
		<g id="July_12_2015_2_" class="st0">
			<g id="XMLID_245_" class="st1">
				<path id="XMLID_249_" class="st8" d="M103.4,747.7c-3.7-1.4-2.5-10.7,2.3-9.6c2.8,0.6,3,4,3.5,6.2c0.6,2.8,1.2,5.5,1.6,8.4
					c-0.1,1,0,2,0.4,2.9c-0.5,0-1.1,0.1-1.6,0.1c-3.3,1.2-6.9,2.1-10.3,3.2c-3.9,1.3-4.9,1-7.6-2.4c-0.7-0.9-1.3-1.7-2.2-2.3
					c-4.2-3.1-10-1.1-12.6,3c-4.3,6.6-1.1,15.4,0.3,22.4c3.9,18.8,6.7,38.2,12.4,56.6c2.7,8.7,5.3,17.5,8.6,26
					c2.6,6.7,6.4,12.8,13,16.1c2.9,1.5,5.4-2.9,2.5-4.3c-8.1-4.1-10.7-12.9-13.4-21c-2.7-8.1-5.6-16.2-7.7-24.5
					c-4.5-17.5-7.6-35.4-11.2-53.1c-0.9-4.2-2.6-9.4-1.2-13.7c0.9-2.5,3.9-5.2,6.7-3.2c1.3,1,2,3.3,3.3,4.4c5.1,4.3,10.1,0.7,15.2-1
					c2.6-0.8,6.4-0.5,8.6-2.1c2.1-1.5,1.8-4.9,1.7-7.1c-0.4-5.3-1.2-14.1-5.6-17.8c-11.2-9.2-20.4,13.1-8.1,17.7
					C105.1,753.6,106.4,748.8,103.4,747.7L103.4,747.7z"/>
			</g>
		</g>
		<g id="July_27_2015_2_" class="st0">
			<g id="XMLID_239_" class="st1">
				<path id="XMLID_243_" class="st9" d="M385.3,876.1c4.6-0.9,9.5-1.4,14-2.6c2.6-0.7,4.8-2.2,5.5-5c0.7-3-0.3-6.9-0.9-9.8
					c-0.8-4.4-1.8-8.7-3.1-13c-5-17-12.9-33-18-49.9c-2.8-9.1-4.6-18.3-5-27.9c-0.4-9.5,0.2-19-0.3-28.5c-0.5-9-2.2-17.6-5.9-25.9
					c-3.9-8.6-9.2-16.4-13.4-24.8c-5.1-10.2-9.1-20.8-12.2-31.7c-2.4-8.6-3.8-17.4-9.8-24.5c-0.4,1.4-0.7,2.8-1.1,4.2
					c20.6-5.1,40.6-10.8,60-19.4c19.6-8.7,40.2-12.4,60.8-18c20.1-5.5,39.8-12.3,59.1-20.2c4.2-1.7,8.4-3.6,12.6-5.4
					c3.7-1.6,6-0.6,8.5,2.4c1.2,1.5,2.6,2.7,4.3,3.7c5.8,3.3,13.7,1.9,17.7-3.7c3.9-5.6,2-14.1-4.8-16.5c-6.9-2.5-12.9,4-11.9,10.6
					c0.5,3.2,5.3,1.8,4.8-1.3c-0.5-3.1,3.2-5.7,6-4.4c2.4,1.2,3.2,4.1,2.6,6.5c-1.5,5.6-8.5,6.7-12.9,3.7c-4.4-3.1-5.5-8.8-12.1-7.3
					c-3.4,0.8-6.7,2.8-9.9,4.1c-4.4,1.9-8.8,3.7-13.2,5.4c-7.8,3.1-15.7,6-23.6,8.7c-15.6,5.3-31.5,9.8-47.5,13.6
					c-8,1.9-16.2,3.6-24,6.1c-7.4,2.4-14.5,5.6-21.6,8.8c-18.1,8-37.1,13-56.2,17.8c-2,0.5-2.3,2.8-1.1,4.2
					c5.5,6.5,6.5,15.3,8.7,23.2c2.2,7.8,5,15.5,8.2,23c6.9,16.1,18.9,30.5,21.9,48c3,17.3-0.2,35,2.9,52.3
					c2.8,15.8,9.3,30.6,15,45.4c3.2,8.4,6.3,16.8,8.4,25.5c0.8,3.5,3.6,11.4,1.2,14.1c-2.6,2.9-11.2,3-15,3.7
					C380.9,871.8,382.2,876.6,385.3,876.1L385.3,876.1z"/>
			</g>
		</g>
		<g id="August_23_2015_2_" class="st0">
			<g id="XMLID_233_" class="st1">
				<path id="XMLID_237_" class="st10" d="M382.8,873.3c-19.8,8.5-42,16.8-63.6,19.1c-4,0.4-8,1.2-10.7-2.3
					c-1.7-2.3-2.6-6.1-3.5-8.8c-1.5-4.4-2.6-8.9-3.6-13.4c-2.2-10.1-3.8-20.4-6.2-30.5c-9.9-41.7-27.8-81.1-36.2-123.3
					c-0.6,1-1.2,2.1-1.7,3.1c6.6-1.4,13.3-2.8,19.9-4.2c5.4-1.1,11.7-1.7,16.6-4.6c2.7-1.6,4.9-3.9,5.6-7c1-4.5-3.2-9-2.4-13
					c1.1-5.4,12.9-7.7,17.4-9.1c6.5-2,13.1-3.4,19.8-4.7c12.6-2.4,25.3-4.1,37.7-7c12.2-2.9,23.3-7.5,34.5-13.1
					c13-6.5,25.7-9.4,40-11.4c27.1-3.8,52.1-15.1,77.6-24.6c21-7.8,44.8-13.2,60.6-30.2c8.8-9.4,15.1-20.8,24-30.3
					c8.6-9.2,18.2-17.3,28-25.1c10.7-8.4,21.5-17.1,33.1-24c12.5-7.5,26.8-10.5,40.8-13.9c28.3-6.8,57-12.1,86.1-13.2
					c14.2-0.5,27.4-0.4,40.1,6.6c11.8,6.5,23.3,13.8,34.8,20.9c10.5,6.5,18.7,16.7,29.8,22.1c11.1,5.4,23.9,3.6,34.7,8.6
					c21.6,9.9,46,3.8,66.8-4.9c13-5.5,25.4-12.1,38.6-17c13.3-5,27.3-7.8,41.4-9.3c27.7-2.9,55.6-0.5,83.2-3.4
					c13.1-1.4,25.5-4.6,38.1-8.4c12.9-3.8,25.8-5.6,39.1-7.6c11.7-1.7,22.9-4.6,33-10.9c9.6-6,17.8-13.9,26.4-21.2
					c21.1-18,45.4-32.2,71.4-41.8c6.1-2.2,12.6-5.2,19-6.5c6.6-1.4,14-1,20.8-1.8c11.7-1.5,23.2-4.1,34.2-8.6c4.8-2,9.4-4.4,14-6.8
					c6.8-3.5,13.7-5.1,21.2-6.4c13.8-2.4,28-2.7,41.8-5.3c11.9-2.3,22.9-9.5,33.4-15.2c11.7-6.4,22.9-13.4,33.5-21.5
					c10.5-7.9,20.7-16.4,32.3-22.5c5.8-3,17-3.8,19.4-11c1.5-4.5-0.9-10.4-2.3-14.6c-1.8-5.3-4-10.4-6.4-15.4
					c-0.5,1.2-1,2.4-1.5,3.7c13.6-4.8,28.3-4.9,41.9-10c5.3-2,10.6-4.3,15.6-7c5.5-3,5.7-6.6,9.4-11.3c3-3.8,6-6.4,6.6-11.6
					c0.2-1.7,0.1-3.6-0.3-5.3c-0.3-1.5-3.5-5.5-3.3-6.3c0.7-3.7,18.1-6.3,21.3-7.2c3.6-1,7-2.1,8.6-5.7c1.9-4.2,0.2-8.9-1.2-12.9
					c-2.7-7.6-4.9-15.2-6.6-23.1c-3.2-14.4-5.1-29.1-9.2-43.3c-3.8-13.5-12.6-24.2-15.9-37.8c-0.8-3.4-1.3-6.8-1.9-10.2
					c-0.4-2.2-3-7.9-2.7-9.8c0.7-3.6,18.9-7.7,22.5-9c4.1-1.6,6.7-3.5,6.3-8.2c-0.4-3.9-2.7-9.8-5.8-12.2
					c-3.2-2.3-20.3-7.1-8.4-11.2c-1,0.4,5.9-1,6.5-0.6c4.2,3.2,0.7,5.3-0.4,7.9c-0.9,2.1-0.8,3.3-0.5,5.5c0.5,3.2,5.3,1.8,4.8-1.3
					c-0.7-4.5,5.3-7.4,4.2-12.4c-0.9-3.9-4.7-4.7-8.1-4.8c-7.2-0.1-20.7,2.3-14.9,12.4c2,3.4,5.7,5.5,9.2,6.9c3.4,1.3,5.1,2,6.8,5.5
					c3.4,6.8-4.9,9-9.9,10.8c-4.6,1.6-12,3-15.8,6.6c-3.7,3.6,0.1,8.5,1,12.7c1.4,6.9,2.2,13.7,4.5,20.3c2.3,6.5,5.8,11.7,9.1,17.7
					c7.3,13.3,8.8,30.7,11.6,45.3c1.3,7,2.8,14,4.7,20.9c0.9,3.4,2,6.8,3.2,10.2c1.5,4.3,4.1,8.2,0.9,12.2c-4.2,5.2-16.5,6.1-23,8.4
					c-2.8,1-6.5,1.9-6.7,5.4c-0.2,2.6,1.8,3.7,3,5.7c3.7,6.4,0,10.3-3.7,15c-1.5,2-2.4,4.2-3.7,6.1c-2.8,4-7.2,5.8-11.4,7.7
					c-15.9,7.3-33.1,7.4-49.4,13.1c-1.6,0.6-2.2,2.2-1.5,3.7c2.8,5.7,5.3,11.6,7,17.7c1.2,4.2,2.4,8.1-1.6,10.8
					c-1.9,1.3-4.7,1.6-6.9,2.3c-11.1,3.8-21,11.6-30.3,18.7c-20.5,15.6-42.5,31.1-66.5,40.8c-12.4,5-27.1,4.4-40.3,6.3
					c-12.7,1.8-24.1,4.1-35.5,10.2c-11.3,6-23.2,10-35.8,12.1c-12.2,2.1-24.3,1.5-36,5.5c-24,8.4-46.6,18.5-67.5,33.2
					c-19.9,14-36.6,35.4-60.8,41.9c-12.4,3.3-25.4,3.6-38,6.2c-12.7,2.6-24.8,7.5-37.5,10c-27.7,5.6-56.3,2.9-84.3,4.5
					c-25.2,1.5-48.7,6.7-71.7,17.1c-24.1,10.9-50.2,25.2-77.6,19c-5.9-1.3-10.9-5.1-16.8-6.1c-6-1-11.9-0.9-17.8-2.5
					c-13.1-3.5-20.7-13-31.3-20.5c-10.5-7.4-21.9-13.6-32.8-20.2c-10.2-6.1-19.8-11.5-31.9-12.6c-25.8-2.2-52.9,2.1-78.2,6.9
					c-24.9,4.8-52.9,9-74.5,22.9c-20.1,13-40.4,28.7-57.1,45.9c-8.7,9.1-15.1,19.6-23.1,29.2c-8.1,9.7-18.8,16-30.4,20.7
					c-11.8,4.8-24,8.6-35.9,13.1c-13,4.9-25.9,10-39,14.6c-23.7,8.3-49.3,7.6-72.1,18.7c-12.1,5.9-23.8,11.1-37,14.1
					c-12.1,2.8-24.3,4.4-36.5,6.8c-11.7,2.2-23.9,4.9-34.6,10.3c-2.7,1.4-5.1,3-6,6.1c-1.1,4.1,1.9,7.1,1.9,10.8
					c0,9.1-10.1,9.5-16.9,10.9c-7.1,1.5-14.2,3-21.4,4.4c-1.4,0.3-2,1.8-1.7,3.1c9.4,47.7,30.6,92.2,39.7,140c2,10.8,4,21.7,8,31.9
					c3.5,8.8,6.4,11.9,16,10.3c23.2-3.8,45.8-10.8,67.4-20C388.3,876.4,385.8,872.1,382.8,873.3L382.8,873.3z"/>
			</g>
		</g>
		<g id="Aug_23_2015_2_" class="st0">
			<g id="XMLID_227_" class="st1">
				<path id="XMLID_231_" class="st11" d="M381.5,876.1c10.8,0.6,23.8-1.7,23.9-15.1c0.1-7.7-2.9-15.6-4.7-23
					c-2.1-8.7-4.2-17.4-6.4-26.1c-3.9-16.2-7.8-32.5-12.5-48.5c-4.6-15.5-10.4-30.5-16.6-45.5c-6.9-16.9-13.5-34.1-14.7-52.5
					c-0.6,0.8-1.2,1.6-1.8,2.4c12.6-3.7,25.3-7.3,38.2-9.7c13-2.4,26.2-3,38.6-7.8c11.7-4.5,22.7-10.2,34.7-14.1
					c11.7-3.8,23.8-6.7,35.7-9.8c11.8-3.1,23.6-6.6,34.8-11.4c7.5-3.2,14.8-8.8,7.6-16.8c-3.4-3.7-7.8-6.7-12.4-8.6
					c-1.8-0.8-4-1.1-5.8-2c-5.5-2.7,0.5-6.6,3.4-8.4c4.8-3,10.3-4.8,16-5.2c5.7-0.4,11.1,2.2,16.6,1.7c8.6-0.9,10.1-12.5,3.4-17
					c-9.1-6-18.1,2.4-21.2,10.6c-1.1,3,3.7,4.3,4.8,1.3c1.8-4.7,5.7-9.8,11.3-8.6c3.1,0.6,5.7,3.7,4,6.9c-1.9,3.5-7.5,0.9-10.5,0.5
					c-7.7-1.2-15.7,0-22.8,3.4c-5.1,2.4-15.1,8.4-12,15.6c1.2,2.8,3.8,3.5,6.4,4.3c5.3,1.6,10.3,4,14.3,8c2.7,2.7,3.4,5.5-0.5,7.8
					c-2.2,1.3-4.6,2.2-6.9,3.1c-5.3,2.1-10.7,4-16.1,5.7c-9.8,3-19.7,5.5-29.6,8.1c-10.5,2.7-20.9,5.6-31,9.4
					c-9.8,3.7-18.9,8.8-28.8,12.1c-11.9,4-24.7,4.5-37,6.9c-12.3,2.4-24.3,5.9-36.3,9.4c-1,0.3-1.9,1.3-1.8,2.4
					c1.2,18,7.2,34.8,13.9,51.3c7.3,17.9,14.2,35.7,19.4,54.3c5.4,19.1,9.8,38.4,14.5,57.7c2.4,9.8,6,19.9,7,29.9
					c1.2,12-9.7,13-18.8,12.5C378.3,870.9,378.3,875.9,381.5,876.1L381.5,876.1z"/>
			</g>
		</g>
		<g id="Aug_29_2015_2_" class="st0">
			<g id="XMLID_221_" class="st1">
				<path id="XMLID_225_" class="st12" d="M558,567.3c-7.2-9.9-9.1-22-11.4-33.8c-2.6-13.4-6.4-26.5-11.5-39.1
					c-0.4-0.9-1.3-1.9-2.4-1.8c-7.7,0.7-15.3,1.7-22.9,3.1c-7.9,1.4-16.5,2.6-24,5.5c-6.8,2.7-12.5,7.7-18.9,11
					c-7.4,3.9-15.4,6.4-23.6,8c0.9,0.4,1.9,0.8,2.8,1.1c-6.5-10-6.1-22.8-11.3-33.5c-3.3-6.8-6-13-7.2-20.5
					c-1-6.6-1.6-13.3-2.5-19.9c-3.2-24.1-8.2-48.5-22.5-68.7c-0.3,1.1-0.6,2.3-0.9,3.4c9.2-6,19.8-8.2,30.4-10.4
					c11.2-2.3,22.8-4.4,34.3-3c5.7,0.7,11.3,2.2,16.4,4.9c4.8,2.5,8.6,6.3,12.7,9.8c7.5,6.3,15.7,8.7,25.4,9.3
					c7.4,0.5,15.8,0.2,21.8-4.7c3.7-3,5-7.8,8.4-10.9c3.7-3.3,9.1-4.2,13.8-5.1c10.4-1.9,21.1-2.7,31.1-6.6
					c10.5-4.1,20.4-9.6,30.9-13.8c21.5-8.5,44.4-13.3,66.7-19.3c22.5-6.1,44.9-12.5,67.1-19.3c10.8-3.3,21.7-6.5,32.3-10.2
					c10.2-3.6,19.7-8.6,29.3-13.4c20.2-10.1,42.1-14,64.2-17.6c11.3-1.8,22.7-4.4,33.9-6.7c6.2-1.3,12.4-2.9,18.6-3.6
					c5.1-0.6,10.5,0.6,15.5-0.2c7-1.1,10.4-12.3,4.7-16.9c-6.5-5.2-15.1,2.9-15.8,9.4c-0.3,3.2,4.7,3.2,5,0c0.1-1.1,2.5-4.5,3.6-5.1
					c6.5-3.1,4.8,6,2.3,7.6c-1.4,0.9-5.1-0.1-6.6-0.2c-2.9-0.1-5.9,0.1-8.8,0.4c-9.1,1.1-18,3.5-27,5.1c-4.8,0.9-9.5,1.7-14.3,2.6
					c-5.1,1-10,2.6-15.2,3c-9.2,0.8-18.5,3.1-27.5,5.2c-9.8,2.3-19.4,5.3-28.5,9.3c-9.6,4.2-18.5,9.7-28.2,13.6
					c-19.2,7.7-39.6,13.1-59.5,18.9c-20.8,6.1-41.7,11.9-62.6,17.4c-20.1,5.3-40.1,10.3-59.2,18.5c-9.6,4.1-19,9.7-29.1,12.4
					c-9.2,2.5-18.8,3.1-28,5.1c-3.5,0.8-7.1,1.9-10.2,3.9c-3.3,2.3-5.1,5.3-7.2,8.6c-5.3,8.2-15.6,7.9-24.3,7
					c-6.7-0.7-12.6-2.4-18-6.6c-3.7-2.9-6.9-6.2-10.7-8.9c-8-5.6-17.8-8.1-27.4-8.6c-11.2-0.5-22.3,1.7-33.2,3.9
					c-10.4,2.1-20.8,4.6-29.7,10.5c-1.1,0.7-1.7,2.3-0.9,3.4c15.1,21.3,19.5,47.5,22.7,72.9c0.7,6,1.3,12.2,2.5,18.2
					c1.3,6.3,3.8,11.6,6.6,17.3c5.4,11,4.9,24,11.7,34.3c0.7,1,1.7,1.4,2.8,1.1c7.2-1.3,14.1-3.5,20.8-6.5
					c6.8-3.1,12.6-7.7,19.1-11.2c6.9-3.7,15.4-4.7,23-6.1c8.4-1.6,16.8-2.7,25.3-3.5c-0.8-0.6-1.6-1.2-2.4-1.8
					c5.3,13.2,9.1,26.8,11.8,40.7c2.2,11.7,4.5,23.6,11.6,33.4C555.5,572.4,559.9,569.9,558,567.3L558,567.3z"/>
			</g>
		</g>
		<g id="Aug_30_2015_2_" class="st0">
			<g id="XMLID_215_" class="st1">
				<path id="XMLID_219_" class="st13" d="M1104.6,302.2c-18.1,8.6-38.2,9.1-57.9,8.2c-9-0.4-16.2,1.4-24.3,5
					c-4.2,1.9-8.4,4-12.8,5.2c-4.8,1.3-9.9,1.5-14.8,2.3c-9.6,1.5-18.3,6.1-28,7.5c-9.3,1.4-18.9,2.3-27.8,5.5
					c-6.8,2.5-3.8,11.2-2.8,16.6c1.8,9.7,3,19.6,6,29c3.2,10.4,7.3,20.7,11.4,30.7c4.5,10.9,12.3,19.1,12.2,31.5
					c0,1.4,1.2,2.4,2.5,2.5c5.2,0.2,10.4-0.3,15.4-1.7c2.2-0.6,4-1.6,6.2-1.2c2.4,0.5,4.5,1.4,7,1.6c3.5,0.3,8.4,0.9,11.3-1.5
					c2.7-2.2,4.3-6.4,4.6-9.7c0.6-7.8-4.9-13.7-12.5-14.4c-3.2-0.3-6.6-0.3-8.8,2.4c-2.9,3.6-1.2,8.2-1.7,12.4c-0.4,3.2,4.6,3.2,5,0
					c0.3-2.2-0.9-6.4,0.1-8.2c1.5-2.6,6.7-1.7,8.9-0.6c3.3,1.8,4.6,5.9,3.8,9.3c-0.9,4.2-3.5,5.5-7.5,5.5c-3.1,0-5.9-0.6-8.9-1.5
					c-1.5-0.4-2.4-0.7-3.9-0.4c-2.8,0.5-5.5,1.8-8.3,2.3c-3.6,0.7-7.1,0.8-10.7,0.7c0.8,0.8,1.7,1.7,2.5,2.5c0-9.1-3.1-16.4-7.7-24
					c-5.2-8.4-8.1-17.9-11.6-27c-3.3-8.8-6.1-17.3-7.8-26.5c-0.8-4.4-1.6-8.9-2.4-13.3c-0.5-2.6-1.1-5.2-1.4-7.9
					c-0.4-3.1-0.4-4.1,2.6-5c9.3-2.6,18.7-3.6,28.2-5.4c9.3-1.7,17.8-6.2,27.3-7.4c8.6-1.1,16-2.8,23.9-6.4
					c3.7-1.7,7.4-3.4,11.3-4.6c5.3-1.6,10.5-1.2,16-1c19.7,0.8,39.7-0.4,57.8-9C1110,305.1,1107.5,300.8,1104.6,302.2L1104.6,302.2z
					"/>
			</g>
		</g>
		<g id="Sep_1_2015_2_" class="st0">
			<g id="XMLID_209_" class="st1">
				<path id="XMLID_213_" class="st14" d="M1084.7,307.7c-12.4,6.2-29,2.3-42.4,3.1c-5.9,0.3-11.8,1.3-17.4,3.3
					c-6.5,2.3-12.6,5-19.5,6c-13.6,2-26.8,4.5-40,8.5c-13.1,3.9-26.1,8.5-39.3,12.3c-12.2,3.4-25.6,4.4-37.3,9.5
					c-4.8,2.1-6.9,4.3-7,9.5c-0.1,6.9,0.9,14,2,20.8c2.1,12.7,5.9,24.8,10.8,36.6c5.1,12.1,11.1,24.4,12.4,37.6
					c0.1,1.2,0.7,3.9,0.1,5.1c-0.8,1.6-3.2,2.1-4.7,2.6c-2.9,1.1-5.9,2.2-8.9,3.2c-7.2,2.5-14.4,4.7-21.7,6.7
					c-14,3.7-28.3,6.3-42.8,6.7c-14.8,0.4-28.9-2.5-43.4-5c-12.9-2.2-25.9-2.8-38.9-1c-13.3,1.9-25.3,6.8-37.7,11.5
					c-12.2,4.7-24.5,5.7-37.3,7.5c-11,1.6-21.3,4.8-29.6,12.5c-8.5,7.8-14.5,17.9-23.1,25.6c-10.6,9.5-23.5,16.1-36.7,21.2
					c-6.6,2.6-13.4,4.8-20.2,6.8c-2.6,0.8-5.1,1.9-7.9,0.1c-1-0.7-1.7-1.9-2.7-2.7c-1.4-1.2-2.9-2.1-4.8-2.4
					c-9.9-1.4-15,10.7-9,17.8c7.8,9.1,20,4,26-4.2c1.9-2.6-2.4-5.1-4.3-2.5c-3.9,5.4-12.2,9.8-17.7,3.6c-2.3-2.6-2.6-6,0.3-8.4
					c3-2.5,5.4-0.9,7.8,1.4c3.4,3.3,6.6,3.9,11.3,2.8c5.8-1.5,11.6-3.5,17.2-5.5c21-7.5,40.4-18,54.7-35.5
					c7.5-9.2,14.6-18.6,26.3-22.7c10.7-3.7,22.2-3.7,33.2-5.5c12.1-2,22.9-7.4,34.3-11.4c12.5-4.3,25.7-6.4,39-6.1
					c13.5,0.3,26.5,3.8,39.7,5.8c12.9,1.9,26,1.9,39,0.3c12.9-1.6,25.5-4.6,37.9-8.3c6-1.8,12-3.8,17.9-6c3.5-1.3,9.1-2.3,11.2-5.9
					c1.9-3.4,0.8-8.3,0.2-11.9c-1-6.2-2.8-12.2-5-18c-4.3-11.3-9.7-22.1-13.3-33.7c-1.8-5.9-3.2-11.9-4.3-17.9
					c-1.2-6.6-2.9-14.6-2.1-21.3c0.7-6.2,10.7-7.3,15.9-8.4c6.5-1.4,13-2.6,19.4-4.3c27.8-7.3,54.1-18,82.7-21.9
					c7.3-1,13.6-3.4,20.5-6c7.2-2.7,14.7-3.5,22.4-3.5c12.8-0.1,27.6,2.4,39.4-3.6C1090.1,310.6,1087.6,306.3,1084.7,307.7
					L1084.7,307.7z"/>
			</g>
		</g>
		<g id="Sep_12_2015_4_" class="st0">
			<g id="XMLID_203_" class="st1">
				<path id="XMLID_207_" class="st15" d="M555.9,569.3c-7.4-14.3-12.6-29.6-15.5-45.5c-1.3-7.3-1.3-14.7-2.5-21.9
					c-0.8-5-3.5-9-8.8-9.5c-3.4-0.3-7.1,0.7-10.5,1.3c-4.4,0.7-8.7,1.5-13,2.4c-7.8,1.7-15.5,4-22.9,7.1c-7.1,2.9-14.1,6.3-21.2,9.2
					c-3.6,1.4-7.2,2.8-10.8,3.9c-1.9,0.6-3.1,1.3-4.3,0.1c-1.4-1.2-2.4-5.1-3.1-6.7c-3.5-7.7-6.8-15.4-9.3-23.5
					c-2.4-7.8-4.2-15.7-6.6-23.5c-5-16-11.4-31.5-17.2-47.2c-2.8-7.6-5.5-15.3-7.9-23c-0.9-2.9-4-9.3-2.3-11.7
					c1.8-2.4,7.3-2.3,10.1-2.8c7.5-1.2,13.8-5.1,20.9-7.4c7.8-2.4,16.1-3.4,24.1-1.9c4.7,0.9,8.7,2.9,12.9,5.1
					c3.2,1.7,6,2.1,9.5,0.9c5.1-1.8,11-6,11.5-11.8c1.3-13.4-21.9-12.8-20.6,0.5c0.3,3.2,5.3,3.2,5,0c-0.8-8.2,13.7-6.3,10.1,0.9
					c-2.2,4.4-8.6,6.8-12.9,5.1c-2.8-1.1-5.4-3-8.3-4c-2.9-1-5.9-1.7-9-2.1c-6.5-0.8-13.1-0.3-19.4,1.2c-6.7,1.6-12.5,4.9-18.9,7.1
					c-5.7,1.9-12.1,1.5-17.6,4c-5.8,2.6-2.9,7.7-1.5,12.7c4.1,14.4,9.4,28.4,14.7,42.4c5.4,14.2,10.8,28.4,14.8,43.2
					c3.8,14.1,8.6,27.4,14.8,40.7c2.4,5.1,3.2,8.6,9.4,7.1c6.5-1.6,12.8-4.2,18.9-6.9c14-6,27.3-11.8,42.3-14.7
					c4.3-0.9,8.7-1.6,13-2.3c1.3-0.2,3.3-0.8,4.6-0.6c4.3,0.6,4.7,3.9,5,7.3c0.8,7.8,1.3,15.5,2.8,23.2c3,15.4,8.3,30.2,15.5,44.1
					C553.1,574.7,557.4,572.2,555.9,569.3L555.9,569.3z"/>
			</g>
		</g>
		<g id="Sep_12_2015_1_" class="st0">
			<g id="XMLID_197_" class="st1">
				<path id="XMLID_201_" class="st15" d="M1287.5,187.2c15.7-1.1,31.5-2.6,45.5-10.4c-1.2-0.5-2.4-1-3.7-1.5
					c3.3,8.5,6.3,17.2,8.8,26c0.4-0.9,0.8-1.9,1.1-2.8c-19.1,9.8-41.9,5.2-61.5,13.4c-4.7,2-9.3,4.5-14.1,6.3
					c-5.4,2-11.1,2.7-16.7,4c-7,1.6-17.3,4-18.4,12.5c-0.4,3.4,0.1,7.3,1.7,10.3c2.1,4,6.3,6.5,9.1,9.8c6.9,8,10.5,18.3,13.6,28.2
					c3.1,9.8,5.4,20,8.8,29.7c0.7,2,1.7,3.2,0.2,4.6c-1.1,1-3.7,1.3-5.1,1.6c-4.6,1-9.3,1.5-13.9,2c-13,1.5-25.3,5.3-37.8,9
					c-6.7,2-13.3,4.4-19.8,7.1c-2.9,1.2-5.8,2.5-8.7,3.5c-1.5,0.5-3,1.1-4.6,1.1c-1.3,0.3-2.5,0.1-3.6-0.5c-2.8-4-2.3-5,1.6-2.9
					c0.1,3.2,5.1,3.2,5,0c-0.3-9.1-13.4-8.8-13.5,0.2c-0.1,3.7,2.8,6.6,6.1,7.8c5.3,1.8,10.8-1,15.6-2.9c13.6-5.6,27.5-10,41.7-13.8
					c11.5-3.1,23.5-3.1,35-6.1c2.8-0.7,6.4-1.9,7.6-4.8c1.5-3.6-1.4-8.4-2.4-11.8c-3.4-12.1-6.5-24.5-11.2-36.2
					c-2-5-4.3-10-7.3-14.4c-1.3-1.9-2.7-3.7-4.2-5.4c-2.4-2.7-6.2-4.9-7.8-8.2c-1.4-2.7-2.1-7.4-0.1-10c1.7-2.1,5.6-3.1,8-3.9
					c6.3-2.1,12.9-2.7,19.2-4.5c7.2-2.1,13.6-6,20.6-8.6c6.5-2.4,13.3-3.5,20.2-4.2c13.5-1.5,27.1-2.1,39.3-8.4
					c1-0.5,1.4-1.8,1.1-2.8c-2.5-8.8-5.5-17.5-8.8-26c-0.6-1.5-2.1-2.3-3.7-1.5c-13.2,7.4-28.2,8.6-43,9.7
					C1284.3,182.4,1284.2,187.4,1287.5,187.2L1287.5,187.2z"/>
			</g>
		</g>
		<g id="Sep_13_2015_2_" class="st0">
			<g id="XMLID_191_" class="st1">
				<path id="XMLID_195_" class="st16" d="M1176.2,344c-1.4-9.5-5.9-18.5-9.1-27.5c-3.4-9.5-6.6-19-9.6-28.6
					c-0.5-1.7-2.2-2.2-3.7-1.5c-4.6,2.1-9.2,4.2-13.8,6.2c1.2,0.5,2.4,1,3.7,1.5c-3.8-10.3-6.6-20.9-9.2-31.5
					c-1.3-5.2-2.4-10.4-3.7-15.5c-0.9-3.6-1.8-6.5-5.8-7.3c-3.1-0.7-7.3-0.6-10.3,0.6c-1.7,0.7-2.6,1.9-4,2.9
					c-2.4,1.6-2.7,0.5-3.5-2.2c-3.2-10-6.1-20-9.3-30c-0.6-1.9-2.7-2.4-4.2-1.1c-2.2,1.9-6.3,1.4-6.4-2.3c-0.1-2.9,3.6-4.5,6.1-4.3
					c4.9,0.3,1.5,5,0.5,7.9c-1,3.1,3.8,4.4,4.8,1.3c1.4-4.2,5.4-11.1-0.7-13.8c-3.9-1.8-10.9,0.1-13.6,3.2
					c-7.3,8.4,4.8,18.6,12.8,11.6c-1.4-0.4-2.8-0.7-4.2-1.1c3.1,9.5,6.4,18.9,8.9,28.5c1.4,5.2,5.2,12.6,11,7.2c2-1.8,3-3.2,5.9-3.6
					c3.6-0.5,5.8,0.3,7.1,3.9c1.8,4.9,2.5,10.5,3.7,15.5c2.6,10.7,5.4,21.3,9.2,31.5c0.6,1.6,2.1,2.2,3.7,1.5
					c4.6-2.1,9.2-4.2,13.8-6.2c-1.2-0.5-2.4-1-3.7-1.5c3,9.6,6.2,19.1,9.6,28.6c3.2,9,7.7,18,9.1,27.5
					C1171.9,348.5,1176.7,347.2,1176.2,344L1176.2,344z"/>
			</g>
		</g>
		<g id="Sep_18_2015_2_" class="st0">
			<g id="XMLID_185_" class="st1">
				<path id="XMLID_189_" class="st17" d="M470.2,364c-12.6,0.5-25.3,1.1-37.8,3.3c-12.5,2.2-24.5,8.7-37.3,8.7
					c-1.3,0-2.6,1.1-2.5,2.5c1,17.1,4.4,34.4,8.3,51.1c1.9,7.9,4.2,15.8,7.6,23.2c3.5,7.4,9,13.3,13.5,20c2.2,3.3,4.2,6.8,6.1,10.4
					c2.4,4.6,2.7,8.4,3.2,13.4c0.6,6.9,2.1,13.9,5.4,20.1c1.1,2,2.6,5.2,4.8,6.4c2.6,1.4,7-0.2,9.6-0.9c8.5-2.1,16.6-5.6,24.9-8.4
					c18.4-6.2,37-12.1,55.6-17.8c-0.9-0.4-1.9-0.8-2.8-1.1c4.7,10.6,6.4,21.3,7.5,32.8c1,9.8,6.4,18.2,8.1,27.9
					c0.4-0.9,0.8-1.9,1.1-2.8c-4.3,3.1-7,8-5.4,13.3c1.5,4.8,6.4,8.1,11.4,7.1c10.6-2.2,11.3-22-0.9-21.6c-3.2,0.1-3.2,5.1,0,5
					c6.4-0.2,4.6,12.1-1.2,11.8c-6.7-0.3-5.3-8.6-1.5-11.3c1-0.7,1.3-1.6,1.1-2.8c-0.9-5.2-2.9-10-4.8-14.9c-2.2-5.6-3-11-3.5-17
					c-0.9-10.4-3.6-20.3-7.8-29.9c-0.4-1-1.9-1.4-2.8-1.1c-15,4.6-29.9,9.3-44.8,14.2c-7.4,2.5-14.8,5-22.2,7.7
					c-3.8,1.4-7.7,2.8-11.6,3.8c-4.4,1.2-7.6,2.4-10.1-2.1c-3.7-6.5-5-14.1-5.3-21.5c-0.3-7.1-3.4-12.7-7-18.7
					c-3.8-6.4-8.9-11.9-12.9-18.2c-4.4-6.9-7-14.9-9.1-22.7c-4.8-17.8-8.4-36.8-9.5-55.2c-0.8,0.8-1.7,1.7-2.5,2.5
					c12.1,0,23.3-5.7,35-8.1c13.2-2.8,26.7-3.3,40.1-3.8C473.4,368.9,473.5,363.9,470.2,364L470.2,364z"/>
			</g>
		</g>
		<g id="Sep_19_2015_2_" class="st0">
			<g id="XMLID_179_" class="st1">
				<path id="XMLID_183_" class="st18" d="M549.2,565.8c-10,5.8-21.4,7.3-32.5,9.9c-2.9,0.7-8.3,1.1-8.6,5c-0.4,3.8,5.1,7.5,7.6,9.4
					c4,3.2,8.8,4.8,13,7.8c3,2.1,5.5,5.6,3.3,9.3c-1.5,2.4-4.3,4-6.7,5.4c-10.4,6.5-21.8,11.4-33.6,14.8c-12.3,3.5-25.1,5.5-37.6,8
					c-12.9,2.5-25.7,4.9-38.6,7.4c-24.3,4.7-48.9,9.3-71.6,19.6c-5.6,2.5-11.1,5.3-17,6.9c-5.4,1.5-14.1,3.2-19.5,0.8
					c-5.3-2.3-5.3-11.6-5.8-16.6c-0.4-4.2,0.3-7.2,4-9.6c3-1.9,6.3-3.3,9.8-4.1c2.9-0.7,6.4-1.4,9.4-0.7c3.2,0.7,5.1,3.4,7,5.9
					c4,5.3,7.5,11,10.5,16.9c5.8,11.3,9.8,23.6,13.9,35.6c1.8,5.1,2.4,10.1,3.2,15.4c0.8,6.1,2.7,11.9,5.1,17.5
					c2.3,5.3,4.2,10.2,5.2,16c1.1,6.5,2.1,13.1,3.5,19.6c2.6,12.1,6.3,23.7,11,35.2c4.9,11.9,7.5,23.7,9.7,36.4
					c1.2,6.9,3.8,14.9,3.5,22c-0.1,4.5-2,6.9-6,8.9c-2,1-5.1,2.6-7.2,1.1c-0.9-0.6-1.5-2.1-2.2-3c-5.3-7.1-12.5-2.3-12.4,5.6
					c0.1,4,1.3,8.5,5,10.5c4.5,2.5,11.8,1.6,16.7,1.8c3.8,0.2,7.3-0.5,7.6-5c0.4-4.4-2.7-7.7-6.5-9.3c-3-1.2-4.3,3.6-1.3,4.8
					c2.6,1.1,3.4,3.6,1.1,4.5c-1.1,0.4-3.4-0.2-4.6-0.2c-2.7-0.1-5.9,0.2-8.5-0.5c-2.9-0.8-5.6-4.5-4.5-7.8c1.6-4.7,3.7-0.7,5.3,1.2
					c5.2,6.1,15.2,1.5,19.6-3.6c2.6-3,3.1-7,2.7-10.8c-0.6-6.2-2-12.5-3.1-18.7c-2.1-12.3-4.1-24.2-8.8-35.9
					c-4.4-10.9-8.5-21.7-11.2-33.2c-1.3-5.7-2.4-11.4-3.4-17.1c-1-6-1.6-12.2-3.8-17.9c-2-5-4.5-9.7-6-14.8c-1.7-5.6-1.8-11.3-3-17
					c-1.1-5.4-3.3-10.6-5.2-15.7c-2.2-6.1-4.3-12.3-6.8-18.3c-4.2-10.1-9.6-19.8-16.4-28.5c-6-7.7-14.2-7.7-23.1-4.8
					c-4.2,1.3-8.7,3.3-11.8,6.5c-3.6,3.6-3.5,8.3-2.9,13c0.9,7.6,1.3,17.8,10.2,20.1c9.6,2.5,21-0.4,29.9-4.2
					c11.1-4.7,21.9-9.7,33.5-13.1c24-7,49-10.9,73.5-15.6c26.1-5,52.7-8.6,76.4-21.2c7-3.7,20.2-9.7,17.3-19.8
					c-1.3-4.5-5.2-7.4-9.1-9.5c-2.4-1.3-4.8-2.4-7.1-3.9c-2.2-1.4-7.9-5.1-8.4-8.1c-0.2,0.8-0.4,1.6-0.6,2.4c1.6-2,7.4-2.3,9.8-2.9
					c3.5-0.8,7.1-1.4,10.6-2.3c6.7-1.6,13.1-3.7,19-7.2C554.5,568.5,552,564.1,549.2,565.8L549.2,565.8z"/>
			</g>
		</g>
		<g id="Sep_20_2015_2_" class="st0">
			<g id="XMLID_173_" class="st1">
				<path id="XMLID_177_" class="st19" d="M383.2,876.3c22.4-5.9,44.8-11.9,67.1-17.8c17.7-4.7,38.6-7.9,50.8-23
					c11.8-14.6,13.3-33.8,14.6-51.8c1.6-22.9,7.3-44.3,13.6-66.3c2.9-10.1,5.4-20.5,8.8-30.5c3.4-9.9,10-15.7,18.4-21.4
					c6.2-4.1,12.6-8.2,17.3-14.1c2-2.5,4.1-5.5,4.2-8.8c0.1-4-2.8-6.6-5.6-9c-13.4-11.3-30.6-17.1-43.6-28.8
					c-6-5.4-18.3-21-4.6-25.5c4.9-1.6,10.1,0.1,14.9,1.4c4.8,1.3,9.7,2.3,14.7,2.7c6.5,0.4,19.2,1.2,22.7-6.1
					c3.8-7.9-7.2-13.8-13.1-15.8c-7.8-2.8-17.3-2-23.1,4.4c-5,5.4-6.5,13.5-2.6,19.8c1.7,2.7,6,0.2,4.3-2.5
					c-4.7-7.6,1.7-16.6,9.7-18c4.6-0.8,9.3,0.3,13.4,2.4c1.6,0.8,4.9,2.3,5.7,4c1.9,4-0.5,5.5-3.9,6.2c-9.7,2.1-19.6-0.1-29-2.6
					c-6.5-1.7-14.2-2.7-19.9,1.7c-12.6,9.8,0.9,26.4,9.4,33.4c12.2,10,27.2,15.7,39.6,25.4c1.2,1,3.8,2.6,4.6,4
					c1.6,3.1,0.2,6.1-1.6,8.4c-2.4,3.1-5.5,5.7-8.6,8c-5.5,4-11.6,7.4-16.7,12c-5.7,5-9.3,11.1-11.7,18.3c-3,9.1-5.4,18.5-8,27.8
					c-5.3,18.6-11.1,37.2-13.2,56.4c-2,18.3-0.9,38-9.9,54.7c-10.6,19.6-33.2,23-52.9,28.3c-22.4,5.9-44.8,11.9-67.1,17.8
					C378.7,872.3,380,877.2,383.2,876.3L383.2,876.3z"/>
			</g>
		</g>
		<g id="Oct_4_2015_2_" class="st0">
			<g id="XMLID_167_" class="st1">
				<path id="XMLID_171_" class="st20" d="M382.6,874.3c6.9,1.6,13.2-2.4,16-8.7c3.6-8.2,1.4-18.3-0.6-26.6
					c-2.4-9.7-6-19.1-8.4-28.8c-2.5-10.2-2.6-20.3-2.5-30.8c0.2-9.7,0.3-19.7-2.6-29.1c-2.8-9.2-8.7-16.7-14.2-24.4
					c-6-8.3-10.1-17.1-12.5-27.1c-1.2-4.9-2-9.8-2.6-14.7c-0.7-5.6-3.3-13,2.5-16.4c4.8-2.8,10.6-4.5,15.8-6.5
					c5.2-2,10.5-3.9,15.8-5.7c10.3-3.5,20.8-6.5,31.4-9.1c19.8-4.9,41.2-5.9,60-13.9c9.6-4,18.6-9.8,29-11.8
					c6.6-1.3,14.8-1.1,19.9-6.2c4.9-4.9,3.9-12.2,0-17.3c-2-2.7-4.6-4.6-7.4-6.3c-3-1.8-5.9-3.5-4.5-7.8c0.8-2.3,2.7-4.4,4.7-5.8
					c4-2.9,9.3-4,14-2.5c4.5,1.4,8,4.9,12.9,5.4c7.3,0.8,15.8-4.9,15.5-12.8c-0.3-6.8-7.2-9.1-12.9-7.7c-8.2,2-13.2,10.1-15,17.8
					c-0.7,3.1,4.1,4.5,4.8,1.3c1.3-5.9,8-18.1,16.1-14.1c3.4,1.7,1.3,6.4-0.9,8.3c-1.6,1.4-3.7,2.3-5.9,2.3c-4.4,0.1-8.1-3.3-12-4.9
					c-5.7-2.2-12.2-1.4-17.5,1.6c-4.8,2.7-10,8.4-9.4,14.4c0.7,7.1,9.6,8.7,13.4,13.6c3,3.8,3.7,9-0.7,12.1c-2.9,2-7,2.5-10.4,3
					c-8.1,1.2-15.4,3.4-22.8,6.9c-8.8,4.1-17.2,8.2-26.7,10.5c-18.7,4.5-37.8,6.9-56.4,12c-18.1,5-36.4,11-53.4,19
					c-8,3.8-6.2,10.5-5.3,18.1c1,8.5,2.3,17.1,4.9,25.3c2.6,8.2,6.6,15.4,11.6,22.3c5.3,7.3,11,14.5,13.5,23.4
					c2.9,10.2,2.2,20.9,2.1,31.3c-0.1,10,0.6,19.7,3.2,29.4c2.5,9.7,6.2,19.1,8.4,28.8c1.2,5.3,2.3,10.9,1.7,16.3
					c-0.6,5.8-4.5,12.7-11.4,11.2C380.7,868.8,379.4,873.6,382.6,874.3L382.6,874.3z"/>
			</g>
		</g>
		<g id="Oct_9_2015_2_" class="st0">
			<g id="XMLID_161_" class="st1">
				<path id="XMLID_165_" class="st20" d="M552.9,568.9c21.5-2.4,41.9-10.6,59-23.9c8.1-6.3,15.2-13.5,21.3-21.7
					c6.6-8.8,12.1-20.5,24-22.7c5.7-1.1,11.3-0.9,16.9-2.5c5.6-1.6,10.8-4,16-6.6c11.5-5.8,22.7-11.1,35.4-13.8
					c25.7-5.4,52.2-2.4,78.1-0.2c26.8,2.3,53.1,3,79.3-4c13.2-3.5,25.6-8.6,38.4-13.2c11.8-4.3,24.6-3.7,36.2-9.1
					c4.1-1.9,9.7-4.4,12-8.6c2.4-4.3,1.3-10.5,0.4-15c-2.4-11.9-8.8-23-14-33.9c-5.6-11.7-10.7-23.6-13.5-36.3
					c-0.9-3.9-2.9-9.4-1.1-13.2c2.4-5.1,14.1-5.8,19-6.4c13.8-1.7,27.5-3.1,41.1-6.4c14.3-3.5,27.9-10.2,42.4-12.8
					c6.9-1.2,13.9-1.5,20.7-3.2c6.7-1.7,13.2-4.3,20-5.8c11.7-2.7,26.2,2.6,35.9-6.2c-1.4-0.6-2.8-1.2-4.3-1.8
					c-0.5,4.5,3.2,8.9,7.9,8.3c5-0.7,8.3-6,8.3-10.7c-0.1-5-3.8-9.3-8.8-10c-6.8-1-7.4,5.8-7.2,11.2c0.1,3.2,5.1,3.2,5,0
					c-0.1-2.8,0.3-5.3,1.4-7.9c-0.6,0.6-1.2,1.2-1.7,1.7c3.5-0.7,6.1,1.6,6.3,5c0.2,1.1,0,2.2-0.7,3.2c-1.2,2.6-3,2.4-5.4-0.8
					c0.3-2.3-2.8-3.1-4.3-1.8c-4.8,4.4-11.3,3.8-17.3,3.6c-6.2-0.3-12,0.3-18,1.8c-5.6,1.4-11.1,3.4-16.6,5
					c-6.2,1.7-12.5,2.3-18.9,3.2c-12.8,1.8-24.6,7.2-36.9,10.9c-12.8,3.8-25.9,6.3-39.1,7.7c-5.5,0.6-11,1-16.4,2
					c-4.7,0.8-10.8,1.7-14.5,5.2c-5.8,5.4-2.6,15-1.1,21.6c2.7,11.9,7.6,23.2,12.9,34.2c5.5,11.5,12.7,23.4,14.6,36.1
					c0.7,4.6,1.1,8.7-2.8,11.9c-2.2,1.8-5,3.1-7.6,4.3c-6.1,2.8-12.5,4-19.1,4.9c-12.8,1.9-23.9,7.2-36.1,11.3
					c-13,4.4-26.4,8.2-40,9.9c-13.5,1.7-27.1,1.5-40.6,0.6c-25.9-1.6-51.8-5.6-77.7-3.3c-11.9,1-23.8,3.3-34.9,7.7
					c-11,4.3-20.9,11.2-32.1,14.7c-6.4,2-12.9,1.7-19.4,3.1c-5.1,1.1-9.5,3.9-13.1,7.6c-8.5,8.6-14,19.7-22.6,28.4
					c-17.7,17.8-41.4,29.2-66.3,32C549.8,564.2,549.7,569.2,552.9,568.9L552.9,568.9z"/>
			</g>
		</g>
		<g id="Oct_10_2015_2_" class="st0">
			<g id="XMLID_155_" class="st1">
				<path id="XMLID_159_" class="st21" d="M1122.4,302.2c18.2-4.5,36.3-9,54.5-13.5c-0.8-0.2-1.6-0.4-2.4-0.6
					c9.3,10.3,15.6,22.9,17.8,36.6c1.2,7.4,1.3,14.9,2.3,22.4c1,7.4,2.8,14.5,5.1,21.6c4.4,13.7,9.8,27.1,14.4,40.7
					c4.7,13.9,8.9,27.9,12.8,42c1.9,6.7,3.6,13.5,5.3,20.3c0.7,2.8,2.2,6.3,2.2,9.3c0,6.6-6.7,6.2-11.6,6.7
					c-14.6,1.7-29.4,1.5-44.1,1.5c-14.9,0-29.6,0.3-44.4,2.2c-14.6,1.9-29.1,4.2-43.7,6.3c-14.4,2.1-29.1,3.7-43.4,6.8
					c-9.8,2.1-20,3.9-25.8,12.6c-8.7,12.9-25.1,12.5-39.1,13.4c-14.3,0.9-28.6,1.7-42.9,1.8c-26.1,0.2-53.1-2.6-74.9-18.1
					c-10.5-7.4-19.7-16.8-31.5-22.3c-11.8-5.5-25.2-7.2-38.1-7.2c-30.3-0.2-59.4,10.1-87.7,19.7c-14.6,5-29.3,10-44.3,13.6
					c-7.4,1.8-16.7,4.1-23.7-0.2c-4.9-3-8.5-11.8-3-15.9c-1.2-0.9-2.4-1.9-3.7-2.8c-7.5,34.9-40.6,61.4-76.4,61
					c0.8,1.1,1.6,2.1,2.4,3.2c1.7-5.3-4.3-9.3-9.2-7.8c-7.2,2.2-5.8,12.1-3.5,17.3c2.2,5.1,7.8,10.5,13.5,6.6
					c5-3.4,4.8-11.2,3.8-16.5c-0.6-3.2-5.4-1.8-4.8,1.3c0.5,3,0.9,14-4.9,10.8c-2.3-1.3-3.5-4.5-4.1-7c-0.3-1.3-0.7-2.8-0.5-4.2
					c0.3-0.8,0.5-1.7,0.8-2.5c1.9-1.6,3.2-1.4,4,0.7c-0.5,1.6,0.9,3.1,2.4,3.2c37.8,0.5,73.2-27.6,81.2-64.6
					c0.4-1.9-1.8-4.2-3.7-2.8c-7.2,5.4-6.3,15.9-0.3,22c8.9,9,23.6,5.1,34.3,2.4c28.8-7.4,56.2-19.2,85.1-26.5
					c28.4-7.1,62.5-10.8,87.9,6.7c11.5,7.9,21.5,17.9,34.2,24c11.9,5.7,24.7,8.6,37.7,10c13.9,1.5,28,1.3,41.9,0.8
					c15.2-0.6,30.8-0.8,45.9-2.9c6.2-0.9,12.4-2.5,17.6-6.2c2.1-1.5,4-3.3,5.7-5.3c1.8-2.2,2.9-5.1,5.2-6.9
					c4.6-3.5,12.4-4.7,17.9-5.9c7.8-1.8,15.7-2.9,23.6-4.1c32.7-4.8,65.5-11.1,98.6-11.4c16-0.1,32,0.4,48-0.9
					c5.5-0.5,12.5-0.4,17.5-2.9c5.4-2.7,5.3-7.2,4.1-12.5c-8-34.7-19.4-68.2-31.4-101.7c-2.9-8.1-5.6-16.3-7.2-24.7
					c-1.7-8.9-1.6-18-3-27c-2.3-14.9-9.1-28.6-19.3-39.8c-0.6-0.7-1.6-0.9-2.4-0.6c-18.2,4.5-36.3,9-54.5,13.5
					C1118,298.1,1119.3,303,1122.4,302.2L1122.4,302.2z"/>
			</g>
		</g>
		<g id="Oct_18_2015_2_" class="st0">
			<g id="XMLID_149_" class="st1">
				<path id="XMLID_153_" class="st22" d="M381.1,877.7c7.1-0.1,14.2-0.9,21.2-2.2c1.1-0.2,1.8-1.4,1.8-2.4
					c-0.2-17.7-4.2-34.9-8.7-51.9c-4.5-17.2-9.2-34.3-13.8-51.4c-9.4-35-18.8-70-28.2-105c-0.6,1-1.2,2.1-1.7,3.1
					c13-4.6,26.9-2.9,40.3-5c12.6-2,23.5-8.8,34.4-14.9c22.9-12.9,46.9-26.1,73.5-28.5c10.5-0.9,23.5,0.1,32.6-6.3
					c10.5-7.4-6.4-17.2-11.5-21.4c-2.1-1.7-4.1-3.5-6.3-5.1c-1.1-0.8-4.7-2.7-5-4.1c-0.8-4.2,20.4-3.5,22.9-3.5
					c9.3,0.2,23,3.6,28.5-6.5c3.7-6.8,4.5-24.5-6.1-25.7c-11.6-1.3-14.7,17.5-14.1,25.4c0.2,3.2,5.2,3.2,5,0
					c-0.4-5.4,0.3-11.3,3.1-16.1c1.3-2.1,1.9-2.9,4.3-3.5c3-0.8,3.7,0.5,4.6,3.5c0.8,2.7,0.6,5.8,0.3,8.6c-0.8,6.9-4.9,9.9-11.7,10
					c-5.9,0.1-11.8-0.7-17.7-0.6c-6.1,0-22-1.7-24.3,6.6c-0.7,2.5,0.8,4.8,2.5,6.5c3.3,3.2,7.5,5.8,11,8.8
					c2.3,1.9,13.6,8.9,12.2,12.6c-0.6,1.7-5.3,2.8-6.9,3.3c-3.1,1-6.4,1.5-9.7,1.8c-10.5,1-20.7,1.3-30.9,3.8
					c-21.1,5.2-40.3,15.8-59.1,26.3c-11.5,6.5-22.6,13.3-36.1,14.8c-12.6,1.4-25.3,0.4-37.4,4.7c-1.3,0.4-2.1,1.7-1.7,3.1
					c9.2,34.4,18.5,68.8,27.7,103.1c4.6,17.2,9.2,34.3,13.8,51.5c4.6,17.2,8.8,34.6,9,52.5c0.6-0.8,1.2-1.6,1.8-2.4
					c-6.6,1.2-13.2,1.9-19.8,2C377.9,872.8,377.9,877.8,381.1,877.7L381.1,877.7z"/>
			</g>
		</g>
		<g id="Oct_22_2015_2_" class="st0">
			<g id="XMLID_143_" class="st1">
				<path id="XMLID_147_" class="st23" d="M552.9,564.7c-16.3-1.2-32,3.9-44.7,14c-1,0.8-1,2.8,0,3.5c9,7.2,16.7,15.7,23,25.4
					c0.1-1,0.3-2,0.4-3c-21.4,18.2-53.9,3.1-77.3,17.4c-6.7,4.1-10.7,11.4-17.9,14.8c-8,3.8-17.7,4.6-26.3,6.2
					c-18.5,3.5-38,5.2-54.7,14.5c-8.3,4.6-16.7,7.3-26,9c-7.1,1.3-18.2,4-23.5-2.7c-5.7-7.2,1.8-18.2,7.3-23.2
					c6.9-6.3,17.1,6.6,20.5,12c8.3,12.9,10.7,28.6,13,43.5c1.4,9.3,2.9,18.6,6.5,27.3c3.4,8.4,8.4,16,11.8,24.4
					c8.1,19.5,14.2,40.1,19.8,60.4c3,10.8,5.6,21.6,7.6,32.6c0.9,5,7.5,34.5-4.9,30.5c0.6,0.8,1.2,1.6,1.8,2.4
					c0.2-13.5-21.5-10.5-23.3,1c-0.8,5.3,2.9,10.8,8.5,11c6.9,0.3,9.8-6.9,11-12.5c0.7-3.1-4.1-4.5-4.8-1.3c-0.5,2.4-1,5.9-3.1,7.6
					c-2.9,2.3-6.8,0.3-6.7-3.5c0.3-6.2,13.6-9.6,13.5-2.3c0,1.1,0.8,2.1,1.8,2.4c7.3,2.4,12.9-4,13.8-10.8c1.2-10-1.9-21.7-3.8-31.4
					c-4.5-22.5-11.5-44.4-18.7-66.2c-3.3-9.9-6.6-19.8-11.2-29.2c-5-10.4-10.3-19.7-12.7-31.2c-3.7-17.9-4.4-36.5-13.1-53
					c-3.6-6.9-8.7-13.1-15.3-17.5c-7.4-5-13.1-3-18.5,3.5c-4.7,5.6-9.1,13.4-7.5,20.9c1.5,7.2,7.9,11.1,14.8,11.7
					c8.8,0.9,18.8-1.5,27.3-3.9c10.3-2.8,18.6-9.5,28.7-12.7c11.2-3.6,23.2-5,34.7-7.1c10.4-2,21.6-3,31.5-6.8
					c9.6-3.7,14.3-13.1,23.3-17.5c8.1-4,17.5-4.7,26.4-5.1c16.9-0.8,35.4,0,49.1-11.6c0.8-0.7,1-2.2,0.4-3
					c-6.5-10-14.4-18.9-23.7-26.4c0,1.2,0,2.4,0,3.5c11.7-9.3,26.3-13.6,41.2-12.5C556.1,569.9,556.1,564.9,552.9,564.7L552.9,564.7
					z"/>
			</g>
		</g>
		<g id="Oct_23_2015_2_" class="st0">
			<g id="XMLID_137_" class="st1">
				<path id="XMLID_141_" class="st24" d="M380.4,876.5c6.2-0.3,12.4-0.6,18.7-1c1.5-0.1,2.3-1.1,2.5-2.5c2-17.8-5.8-35-11.1-51.7
					c-5.8-18-11.1-36.1-15.9-54.3c-4.8-17.9-9.1-36-13-54.1c-3.5-16.6-5.5-34.2-14-49.2c-0.3,1.1-0.6,2.3-0.9,3.4
					c10.8-6.1,23.5-6.8,35.5-8.2c11.8-1.4,23.6-2.8,35.4-4.7c23-3.9,44.4-10.8,65.3-21.3c10.6-5.3,21-11,32.1-15.1
					c4.9-1.8,10.1-2.8,15-4.5c3.3-1.1,6.3-3.3,6.1-7.2c-0.2-3.7-3.7-6.5-6-8.9c-4.1-4.2-8-8.5-11.9-12.9c-5.9-6.5-13.6-6.8-21.8-4.9
					c-10.8,2.5-20.2,8.2-30.3,12.4c-11.4,4.7-23.4,5.8-35,9.5c-5.1,1.7-12.2,6.1-16.8,1.1c-4.5-4.9-5.5-13.5-6.1-19.8
					c-1.1-11.4-1.3-22.6-3.8-33.8c-5.3-23.8-14.9-45.5-24.5-67.7c-4.9-11.2-6.8-23.5-9.1-35.5c-2.4-12.9-3.4-25.5-4.1-38.5
					c-0.2-5-0.8-10.8-3.7-15c-3.1-4.5-6.4-3.1-10.9-1.8c-5.6,1.7-10.8,2.3-15.9,5.3c-5.5,3.2-10.3,6.9-16.3,8.9
					c-13.1,4.4-26.9,7.2-40.2,10.6c-6.9,1.8-14,3.9-21.2,3.7c-0.7,0-5.5,0-5.7-0.7c-0.4-1.6,2.2-3,3.2-3.6c0.9-0.5,2.5-1.5,3.6-1.6
					c5.7-0.4,5,5.7,4.9,8.9c-0.1,3.2,4.9,3.2,5,0c0.3-9.2-4.7-17.4-14.7-12.4c-3,1.5-7.3,4.4-7.7,8.1c-0.5,4.7,4.5,5.6,8,6
					c11.7,1.4,23.8-3.1,34.9-6c11.5-3,23.9-5.1,35-9.7c5-2.1,9.2-5.3,13.8-8c2.6-1.5,5.2-2.7,8.1-3.4c2.8-0.7,6.2-2,9-2.3
					c6.2-0.6,5.8,12,5.9,16.2c0.2,6.9,0.6,13.7,1.5,20.6c1.6,12.2,3.9,24.4,6.8,36.3c3,12.6,9.2,23.7,14.2,35.6
					c9.7,23.2,17,47.3,18.4,72.4c0.6,9.8,1,22.8,8.1,30.5c7.6,8.1,18.2,0.8,26.8-1.2c12.2-2.8,23.9-5.3,35.4-10.6
					c9.8-4.5,20-10.4,31-10.8c6.2-0.2,9.2,3,13,7.4c1.8,2.1,3.7,4.1,5.7,6.1c2.1,2.2,6.8,5.4,7.7,8.2c1.2,3.8-3.9,4.1-6.2,4.6
					c-2.5,0.6-4.9,1.4-7.4,2.2c-5.6,1.9-11.1,4.2-16.5,6.7c-12,5.6-23.5,12.2-35.7,17.4c-13.2,5.7-27.2,9.4-41.3,12.1
					c-14.3,2.7-28.7,4.4-43.1,6.1c-12.4,1.5-25.2,2.4-36.2,8.7c-1.2,0.7-1.6,2.3-0.9,3.4c8.5,14.7,10.2,32.5,13.7,48.9
					c3.8,17.8,8.1,35.6,12.8,53.2c4.6,17.3,9.6,34.5,15.1,51.6c5.4,17,13.8,34.8,11.8,53.1c0.8-0.8,1.7-1.7,2.5-2.5
					c-6.2,0.3-12.4,0.6-18.7,1C377.2,871.6,377.1,876.6,380.4,876.5L380.4,876.5z"/>
			</g>
		</g>
		<g id="Oct_24_2015_4_" class="st0">
			<g id="XMLID_131_" class="st1">
				<path id="XMLID_135_" class="st25" d="M551,566.6c-13.2,12.3-31.8,14.9-49.1,16.8c-19.5,2.1-39.1,4.4-58,9.9
					c-36.3,10.6-68.7,30.9-106.5,36.5c-6.3,0.9-9.9,3.9-8.8,10.5c1.7,9.9,4.6,19.6,8.2,29c7,18.4,18.9,34.4,25.4,52.9
					c6.8,19.4,10.4,40,15.1,59.9c4.9,20.8,9.8,41.6,14.7,62.4c1.3,5.7,3.7,12,3.8,17.9c0.1,3.2-0.8,7.4-4.5,8.2
					c-3.2,0.7-4.3-1.9-5.6-4.2c-3.1-5.5-7.8-9.3-14.3-6.2c-6.5,3.1-7.8,10.8-4.3,16.6c4.6,7.6,13.9,8.4,21.7,6
					c3.1-0.9,1.8-5.8-1.3-4.8c-4.9,1.5-10.9,1.9-14.8-2.1c-3.5-3.7-3.6-10.8,2.4-11.7c5.9-0.9,7.2,9.5,12.6,11.3
					c5.2,1.7,10.6-2.4,12.2-7.2c2.7-7.7-1.5-17.6-3.3-25.2c-4.6-19.5-9.2-39-13.8-58.5c-4.5-18.9-8.3-38.2-13.8-56.9
					c-5.2-17.5-15.3-32.2-22.9-48.7c-4.1-8.9-7.5-18.2-10-27.7c-1-3.6-3.1-8.7-2.8-12.5c0.4-5.6,8.1-4.7,12.1-5.4
					c35.1-6.1,65.7-25.7,99.6-35.5c20.6-6,41.7-7.8,62.9-10.5c16.7-2.1,33.7-5.7,46.4-17.5C556.9,567.9,553.3,564.4,551,566.6
					L551,566.6z"/>
			</g>
		</g>
		<g id="Oct_24_2015_1_" class="st0">
			<g id="XMLID_125_" class="st1">
				<path id="XMLID_129_" class="st26" d="M392.5,879.4c-7.2,3.4-20.8,2.7-24.4-5.9c-2.1-5.1,3.7-8,8.2-8c4.7,0,9.3,2.5,13.8,3.7
					c8.4,2.1,16.8-0.5,25.1-2.3c9.3-1.9,18.6-4,27.8-6.4c17.1-4.5,35.1-9.9,50.3-19.3c5.8-3.6,11.1-8.3,13.8-14.6
					c3.5-8.2,1.8-17.2,0.9-25.7c-3.2-29.5,1.1-60.6,15.1-86.9c6.9-13,16.3-24.8,28-33.9c10.8-8.3,25.1-13.4,26.5-28.9
					c0.6-6.8-1.4-14-5.9-19.2c-2.9-3.4-6.7-5-10.5-7.1c-5.1-2.7-10.2-5.3-15.3-8c-14.7-7.7-35.2-17.1-37.3-35.8
					c-0.8,0.8-1.7,1.7-2.5,2.5c32.2,0.2,61.1-12.6,84.8-33.9c6.5-5.9,12.8-12,20-17.2c6.9-5,14.6-8.8,22.5-12
					c14.6-5.9,30-9.9,44.1-17c15.3-7.7,28.3-19.4,44.7-25c17.3-5.9,36.1-6.8,54.2-5.2c2.6,0.2,14.1,3.4,12.3-3.3
					c-0.5-1.8-2.1-2.5-3.8-2.8c-3.5-0.7-4.5-0.2-5.9-3.7c-2-4.9-2.7-10.4-3.7-15.5c-1.2-6.5-3.2-12.9-4.9-19.3
					c-5.3-20.5-9.8-41.2-13.7-62.1c-1.8-9.5-2.7-19.5-5.9-28.7c-2.9-8.5-9.4-13.5-13.8-21c-0.5,1.2-1,2.4-1.5,3.7
					c9.5-3,19.3-3.2,29.1-4.5c8.6-1.1,17.1-3.1,25.4-5.7c17.5-5.4,34.2-13.2,51.1-20.1c35.8-14.5,72.8-25.7,110.6-33.6
					c3.1-0.7,1.8-5.5-1.3-4.8c-37.8,7.9-74.8,19.1-110.6,33.6c-17,6.9-33.6,14.6-51.1,20.1c-9,2.8-18.2,4.9-27.6,6
					c-9.1,1-18.2,1.5-26.9,4.3c-1.5,0.5-2.3,2.2-1.5,3.7c4,6.7,10.3,11.5,13,19c2.9,7.9,3.8,16.5,5.3,24.7
					c3.3,18.1,7,36.1,11.3,53.9c3.2,13.1,6.6,26.1,9.4,39.3c0.9,4.2,1.8,9.3,4.5,12.8c1.1,1.4,2.2,2.2,4,2.6c0.6,0.2,2.3,0.7,3,0.4
					c5-2-2.1-3.4-3.1-3.5c-17.2-1.9-34.9-1.5-51.8,2.8c-15.9,4-28.7,12.7-42.3,21.3c-26.5,16.7-59.2,20-83.8,40.1
					c-14.4,11.7-26.7,25-43.5,33.5c-16.3,8.3-34.5,12.4-52.8,12.3c-1.2,0-2.7,1.2-2.5,2.5c1.7,14.9,13.1,24.8,25.2,32.2
					c8,4.9,16.5,9,24.8,13.3c8.3,4.3,16.6,7.5,18.7,17.6c4,18.9-16.7,25.3-28.3,35.2c-11.3,9.7-20.3,21.9-26.8,35.1
					c-13.7,27.6-17.4,59.2-13.8,89.5c1.2,10.1,1.9,20.1-6,27.8c-6.8,6.6-16.5,10.5-25.1,14c-18.5,7.4-38,12-57.5,16.1
					c-5.6,1.2-11.5,3-17.2,3.2c-5.6,0.2-10.6-2.5-15.9-3.8c-6.4-1.5-14.6-0.5-18.2,5.9c-3.9,7.1,3,13.7,9,16.6
					c7.3,3.5,15.4,3.3,22.6-0.1C397.9,882.4,395.4,878.1,392.5,879.4L392.5,879.4z"/>
			</g>
		</g>
		<g id="Oct_25_2015_2_" class="st0">
			<g id="XMLID_119_" class="st1">
				<path id="XMLID_123_" class="st27" d="M392.1,876.1c20.3-4.6,40.6-9.4,60.8-14.3c16.2-3.9,32.8-8.3,43.9-21.8
					c10.9-13.3,17.1-30.9,22.6-47c6-17.8,10.3-36.2,12.7-54.8c2.2-17.1,2.4-35.6,10.7-51.2c7.9-14.9,26.3-22.8,30.3-40
					c3.6-15.7-9.7-24.3-20.8-32.1c-7.4-5.2-14.2-11.3-20.3-18c-3.1-3.4-6.6-7.1-8.8-11.2c-4-7.4,3.8-8.4,8.9-9.8
					c17-4.6,34.3-8.3,50.7-14.9c15.2-6.1,28.2-14.9,39.8-26.4c11.4-11.4,21.5-24.2,33.8-34.7c14.1-11.9,30.8-17.4,48.8-20.2
					c19.9-3.1,40.4-5.5,60.6-5.3c18.7,0.2,34.1,7.2,50.9,14.4c6.3,2.7,13.3,3.5,18.3-1.9c3.9-4.3,5.2-10.8,5.1-16.4
					c-0.1-9.3-2.5-18.6-4.7-27.6c-2.5-10-4.9-20.1-7.4-30.1c-2.3-9.3-4.7-18.7-8.2-27.7c-3.2-8.4-7.7-16.2-11.7-24.2
					c-4.3-8.6-7.6-17.6-9.7-27c-1.1-5-1.9-10-2.4-15.1c-0.2-2-0.4-4-0.4-6c0-4.4,2.2-6.4,6-7.9c8.9-3.5,18.4-4.9,27.8-6.6
					c9.5-1.7,19-3.8,28.3-6.3c18-4.8,35.6-11.1,52.7-18.7c8.6-3.8,16.9-8,25.2-12.5c-1-0.1-2-0.3-3-0.4c7.1,7.6,17.7,10.7,27.9,8.9
					c9.9-1.8,21.7-9.9,20.8-21.2c-0.4-5.4-4.1-9.6-8.2-12.8c-4.7-3.7-10.2-7.5-16-9.3c-4.9-1.5-10.5-1.2-14.7,1.9
					c-4.9,3.6-5.5,9.6-5.8,15.2c-0.1,3.2,4.9,3.2,5,0c0.2-5.3,0.9-11.2,6.9-12.7c4.6-1.1,9,0.8,12.9,3c7.1,4.1,18.8,11,13.5,20.8
					c-7.6,14-29,13-38.8,2.5c-0.8-0.8-2.1-0.9-3-0.4c-34,18.5-70.5,30.8-108.5,37.6c-8.9,1.6-18.2,3.1-26.5,6.9
					c-7.6,3.4-7.8,9.4-7.1,16.9c1.5,18.2,7.4,35,15.8,51.1c4.7,9,8.8,17.9,11.8,27.6c2.9,9.4,5.1,19.1,7.4,28.7
					c2.4,9.6,4.9,19.2,7,28.9c1.7,8.1,4,18.2,0.4,26.2c-5,11-17.8,2.3-25.4-1c-7.4-3.2-15-6.2-22.9-8c-18.2-4-37.6-1.8-56,0.2
					c-18.3,2-37.3,3.6-54.3,10.9c-14.1,6-25.5,16.3-35.9,27.4c-11.3,11.9-21.8,25-35.3,34.5c-14.4,10.2-31.4,15.7-48.3,20.2
					c-8.7,2.3-17.4,4.4-26,6.8c-5.8,1.6-12.9,3.7-12.2,11.2c0.7,6.9,7.7,13.5,12.1,18.3c5.7,6.2,11.9,11.7,18.7,16.7
					c6.4,4.7,14.5,8.7,18.7,15.7c5.3,9,0.3,19-6,26c-5.5,6.1-12.2,11.1-17.2,17.7c-4.9,6.4-8.1,14-10.2,21.8
					c-4.6,17-4.7,34.9-7.8,52.1c-3.4,18.9-8.7,37.4-15.9,55.2c-6.9,17.2-14.9,34.8-32.7,43.1c-8.2,3.8-17.1,5.8-25.9,7.9
					c-10.1,2.4-20.3,4.8-30.4,7.2c-9.8,2.3-19.7,4.6-29.5,6.8C387.6,872,388.9,876.8,392.1,876.1L392.1,876.1z"/>
			</g>
		</g>
		<g id="Oct_31_2015_4_" class="st0">
			<g id="XMLID_113_" class="st1">
				<path id="XMLID_117_" class="st28" d="M551.7,570.5c-1.6-17.3-2.5-34.8-4.9-52c-1-7.2-2.7-14.5-7-20.6c-4-5.7-9.1-4.9-15.3-3.9
					c-17.6,3-35.2,4.4-52.9,6c-12.8,1.2-26.5,5.3-31.2,18.6c1.5-0.2,3-0.4,4.6-0.6c-8.7-19.6-10.9-41.1-14.8-62
					c-1.9-10.3-4.3-20.5-8-30.2c-3.7-9.5-9-18.3-12.2-28c-1.7-5.1-2.1-9.8-2.5-15.1c-0.2-2.5-0.9-5.1-3.6-6.1
					c-3.5-1.3-8.9,0.5-12.4,1.3c-5.3,1.2-10.4,2.9-15.5,4.8c-21.1,7.9-41.4,17.8-62.7,25.5c-11.7,4.2-23.6,7.8-35.8,10
					c-5.4,1-14.5,3.5-19.7,0.3c-3.3-2-4-5.9-3.6-9.6c0.1-1.1,0.3-2.1,0.8-3c0.4-1.2,1.2-2.1,2.5-2.7c1.8-0.3,2.9,0.4,3.4,2
					c-0.5,3.1,4.4,4.5,4.8,1.3c1-7-7.5-10.9-12.7-6.4c-6,5.2-4.9,17.5,1.2,22.1c3.3,2.5,7.6,2.7,11.5,2.5c6.2-0.4,12.5-1.5,18.6-2.8
					c12.8-2.7,25.2-6.9,37.4-11.5c12.4-4.8,24.6-10,36.8-15.2c11.7-4.9,23.5-10.3,36.1-12.8c3.1-0.6,7-2.3,7.9,1.5
					c0.5,2.3,0.2,4.9,0.6,7.3c1,5.7,3.1,11.1,5.4,16.4c5.1,11.4,10.4,22.3,13.6,34.5c6.7,26.1,7.6,53.5,18.6,78.5
					c0.9,2.1,3.9,1.2,4.6-0.6c4.8-13.6,21.4-14.6,33.5-15.4c13.9-1,27.7-2.5,41.5-4.7c3-0.5,8.3-2.4,11.2-1.8c4.4,1,6.5,5.9,7.9,9.7
					c2.2,6,2.8,12.4,3.4,18.8c1.4,14.6,2.6,29.3,4,43.9C547,573.7,552,573.7,551.7,570.5L551.7,570.5z"/>
			</g>
		</g>
		<g id="Oct_31_2015_1_" class="st0">
			<g id="XMLID_107_" class="st1">
				<path id="XMLID_111_" class="st29" d="M262.2,424.4c8.7,18.2,15.1,37.4,19,57.2c3.9,19.5,5.7,39,12,58
					c11.6,35.1,31.2,67.5,38.1,104.1c3.7,19.3,4.4,38.8,12,57.2c6.6,16.3,16.2,31.2,24.8,46.5c9.5,16.7,16.8,34,21.4,52.6
					c4.7,19.1,7.2,38.6,9.4,58.1c0.3,2.4,0.7,4.8,0.7,7.2c0,0.6,0.1,1.9-0.2,2.4c-1.8,3.2-5,0.5-6.9-0.5c-4.2-2.4-8.3-4.6-13.2-5.3
					c-7-0.9-14.5,2.3-17.2,9.2c-2.1,5.5,0.1,11.6,5.9,13.3c5,1.5,11.1-0.4,12.2-6c0.7-3.1-4.2-4.5-4.8-1.3c-0.7,3.2-5,3.6-7.4,1.9
					c-4.3-3.1-0.3-9,3-10.9c4.7-2.7,10.6-1,15.2,1.3c3.3,1.7,6.4,4.4,10.2,4.9c5.9,0.8,8.4-4.5,8.1-9.6c-0.4-8.9-2-17.9-3.2-26.7
					c-2.4-17.6-5.4-35.3-10.8-52.3c-5.1-16.3-12.7-31.3-21.3-46c-8.6-14.8-17.7-29.5-23.5-45.6c-6.3-17.8-6.7-36.8-10.6-55.2
					c-7.2-34.1-25-64.7-36.3-97.4c-3.3-9.4-6-19-7.8-28.8c-2-10.8-3.2-21.7-5.3-32.5c-4-20.2-10.7-39.8-19.5-58.4
					C265.1,419,260.8,421.5,262.2,424.4L262.2,424.4z"/>
			</g>
		</g>
		<g id="Nov_1_2015_2_" class="st0">
			<g id="XMLID_101_" class="st1">
				<path id="XMLID_105_" class="st30" d="M381.8,872c-18.5,6.8-37.2,12.8-56.2,18c-9.8,2.7-19.6,5.1-29.5,7.4
					c-9.2,2.1-17.7,5.3-26.4,8.8c-17.7,7.2-37,8.3-55.2,14.3c-4.1,1.3-8,2.8-12,4.5c-2.7,1.1-6.1,2.1-7.3,5
					c-1.3,3.2,0.6,7.2,1.7,10.1c1.5,4.1,3.5,8,5.8,11.7c1.1-1.1,2.3-2.3,3.4-3.4c-4.8-3.4-10.4-10.3-9.4-16.7
					c1-6.1,10.4-4.6,14.9-4.9c14.2-0.7,28.4-2.3,42.5-4.7c13.4-2.2,28.4-4.3,41-9.6c11.7-4.9,12.6-15.9,12.6-27.3
					c-0.1-28.2-9.3-54.5-19.5-80.5c-10.5-26.8-20.3-53.5-22.5-82.5c-0.1-1.2-0.7-3.7-0.3-4.8c0.7-1.9,3.1-2.3,4.8-2.9
					c3.2-1.2,6.4-2.3,9.5-3.5c5.7-2.1,12.3-3.6,17.3-7c3.4-2.4,6.1-6.3,5.7-10.6c-0.3-3.1-2.2-4.4,0.5-6.8c2.4-2.2,6.8-3.4,9.7-4.8
					c25.9-11.9,54-17.4,81.7-23.5c14.8-3.3,29.6-6.6,44.4-9.8c13.6-3,27.7-5.3,40.4-11c6.4-2.9,12.4-6.6,18.9-9.2
					c5.9-2.3,12.2-3.5,18.1-5.8c8.8-3.5,18-11.5,16.6-22c-0.7-5.4-4.4-9.5-8.8-12.4c-3.8-2.5-12.2-5.9-5.1-11.2
					c2.5-1.9,7.3-2.7,10.2-3.4c4.1-1,8.7-1.9,13-1.1c3.4,0.7,5.7,2.8,8.7,4.4c4.6,2.6,8.9,2.1,12.7-1.6c8.1-7.9,8.1-21.6-0.6-29.1
					c-3.9-3.3-9.5-5.2-14.5-3.9c-4.9,1.3-7.5,5.7-6.4,10.6c0.8,3.1,5.6,1.8,4.8-1.3c-1.8-7.7,9.7-3.9,11.9-2.3
					c2.6,1.8,4.6,4.6,5.4,7.7c1.4,5.2-1.4,17.9-8.9,16.5c-2.9-0.5-5.5-3.5-8.3-4.7c-1.8-0.8-3.7-1.2-5.7-1.4
					c-5.6-0.6-11.5,0.8-16.9,2.3c-4.1,1.2-9.2,2.5-11.9,6.1c-2.8,3.6-1.6,8.4,1.4,11.5c3.9,4.1,10,5.2,12.8,10.5
					c3.7,6.8-1.6,14.2-7.4,17.7c-5.2,3.2-11.3,4.5-17,6.2c-6,1.8-11.5,4.4-17.1,7.3c-12.6,6.5-25.3,9.8-39.1,12.9
					c-28.3,6.3-56.7,12.1-84.9,18.9c-12.7,3-25.2,6.6-37.4,11.2c-5.2,2-10.3,4.1-15.4,6.5c-3.7,1.7-11,3.9-12.3,8.5
					c-0.5,1.9,0.3,3.3,0.8,5.1c1,4.1-0.5,6.6-4,8.7c-6.2,3.6-14.1,5.5-20.8,7.9c-3.5,1.3-8.8,2.2-10.9,5.7c-1,1.7-0.9,3.4-0.9,5.3
					c0.1,4.1,0.6,8.3,1.1,12.3c3.3,26.6,12.7,51.2,22.4,76c10,25.6,18.9,51.6,18.6,79.4c-0.1,7.8-0.3,16.1-8.1,20.1
					c-6.6,3.3-14.7,4.5-21.9,6.1c-15.7,3.5-31.7,6-47.8,7.4c-7.5,0.7-15.2,0.5-22.7,1.4c-3.6,0.4-7.4,1.7-9.3,5
					c-5,8.9,3.9,20.5,10.7,25.4c2.1,1.5,4.7-1.4,3.4-3.4c-2.4-3.9-4.5-7.9-5.9-12.2c-0.9-2.6-1.7-4.4,0.5-6.3
					c1.4-1.2,4.6-1.9,6.3-2.6c8.1-3.2,16.5-5.6,25-7.5c8.4-1.8,16.9-3.1,25.2-5.3c8.2-2.2,15.8-5.8,23.7-8.8c8-3,16.5-4.6,24.9-6.6
					c8.6-2.1,17.2-4.3,25.8-6.8c17.1-4.8,34-10.3,50.7-16.5C386.1,875.7,384.8,870.9,381.8,872L381.8,872z"/>
			</g>
		</g>
		<g id="Nov_11_2015_2_" class="st0">
			<g id="XMLID_95_" class="st1">
				<path id="XMLID_99_" class="st31" d="M547.9,570.2c17.2-5.8,34.4-11.7,51.6-17.8c7.3-2.6,14.8-5.3,21.4-9.4
					c6.2-3.8,11.5-8.8,16.4-14c10.7-11.5,20.1-23.3,34.5-30.5c14.9-7.4,31.7-10.8,48-13.5c17.9-3,36.1-4.6,54.3-4.7
					c17.8-0.2,35.2,2,52.9,3.5c15.6,1.4,9.9-24.1,7.9-33c-4-17.8-10.5-35.3-16-52.7c-1.5-4.8-3-9.7-4.5-14.5
					c-1.4-4.4-4.1-9.8-4.2-14.4c-0.1-3.5,1.6-7,1.5-10.6c-0.1-2.9-0.6-6.5-2.5-8.8c-3.9-4.7-11.9-3-14.8,1.9
					c-2.7,4.6-3.9,13.6,2.5,15.4c3.1,0.8,4.4-4,1.3-4.8c-1.8-0.5-0.7-4.9-0.5-5.7c1.1-3.7,5.5-6.3,8.3-1.9c1.8,2.9,0.3,7.8-0.5,10.8
					c-1.5,6.1,1.6,12,3.4,17.8c4.6,15,9.3,29.9,14,44.8c2.2,7.1,4.6,14.1,6.4,21.3c1,4.1,1.9,8.2,2.4,12.4
					c0.5,4.1,1.3,10.3-0.1,14.3c-1.3,3.7-3.9,2.9-7.2,2.4c-3.8-0.5-7.6-1-11.3-1.4c-8.2-0.8-16.4-1.4-24.7-1.7
					c-29.7-0.9-59.7,1.8-88.7,8.5c-12.5,2.9-25,6.8-36,13.5c-11,6.7-19.1,16.3-27.6,25.8c-4.9,5.4-10,10.7-16.1,14.7
					c-7.2,4.8-15.5,7.6-23.5,10.5c-16.5,5.9-33.1,11.6-49.7,17.2C543.5,566.4,544.8,571.2,547.9,570.2L547.9,570.2z"/>
			</g>
		</g>
		<g id="Nov_14_2015_6_" class="st0">
			<g id="XMLID_89_" class="st1">
				<path id="XMLID_93_" class="st32" d="M546.8,572.1c17-6.3,34.7-11.7,51.1-19.3c7.2-3.3,13-8.1,19-13.2c7.2-6,15.9-12.1,25.8-9.2
					c1.8,0.5,3.6-1.3,3.1-3.1c-0.7-2.3,9.2-6.3,10.8-7.1c4.2-2.2,8.5-4.5,12.7-6.7c8.1-4.3,16.2-8.6,24.3-12.8
					c8.2-4.3,16.6-8,25.6-10.3c9.2-2.3,18.7-3.4,28.2-4.4c32.3-3.2,68.2-7.1,98.2,8.1c14.8,7.5,26.5,19.9,40.5,28.7
					c13.6,8.5,28.7,15,44.4,18.4c16.1,3.4,32.1,3,48-1.1c16.6-4.3,32.4-11.4,48.4-17.5c34.2-12.9,69.2-27.7,106.2-29.7
					c18.6-1,37.1,1.3,55.6,1.6c18.2,0.3,36.4-1.4,54.4-4.2c32.3-5.1,65.9-13.6,90.8-36.1c21.4-19.3,34-49.3,24.8-77.8
					c-2.2-6.9-5.7-13.2-10.3-18.8c-5.4-6.7-11.4-12.7-15.5-20.4c-8.3-15.7-13.3-33.7-17.2-51c-3.9-17.3-4.7-34.7-7.2-52.1
					c-1.1-7.5-2.9-15.1-7.1-21.5c-4-6.1-9.7-11.2-12.7-17.9c-0.6-1.4-1-2.9-1.6-4.4c-0.7-1.5-1.9-2.5-2.6-4
					c-0.4-0.7-0.9-1.9-0.7-2.8c0-0.4,0-0.8,0-1.2c1.2-0.3,2.5-0.6,3.7-0.9c1.4,0.6,5,6.3,1,6.8c-3.2,0.3-3.2,5.3,0,5
					c15.4-1.6,2.4-22.5-6.7-16.9c-3.9,2.4-4,9.4-1.8,13c3.8,6.3,6.7,12.7,11.4,18.5c5.8,7.3,9.6,14.1,11.4,23.3
					c1.8,9.3,1.9,18.8,3.1,28.2c2.2,18.4,6.2,36.5,12,54.1c2.8,8.4,5.8,16.8,9.7,24.7c3.9,7.7,9.3,13.8,14.8,20.3
					c11.7,13.5,16.1,30.9,13.1,48.5c-6,35.2-38.3,57.9-70.1,68.4c-37.1,12.3-77.3,15.4-116.2,13.2c-19.3-1.1-38.3-1.7-57.5,1.6
					c-18.8,3.2-37,9.1-54.8,15.6c-17.6,6.4-35.1,13.2-52.5,20c-17.2,6.7-35.1,13-53.8,12.7c-18.3-0.3-36.6-6.1-52.7-14.6
					c-15.7-8.3-28.1-20.6-42.9-30.1c-28.8-18.4-64.8-16.9-97.5-13.9c-18.2,1.6-36.7,3-53.7,10.2c-17.8,7.5-34.8,17.6-51.8,26.6
					c-4.5,2.3-13.3,5.3-11.4,11.9c1-1,2.1-2.1,3.1-3.1c-17.8-5.3-29.2,11.5-42.5,19.6c-8,4.9-17.3,7.7-26.1,10.9
					c-10,3.7-19.9,7.4-29.9,11.1C542.5,568.4,543.8,573.2,546.8,572.1L546.8,572.1z"/>
			</g>
		</g>
		<g id="Nov_14_2015_2_" class="st0">
			<g id="XMLID_83_" class="st1">
				<path id="XMLID_87_" class="st33" d="M1282.9,185.1c3.6,27.7,11.9,54.4,21.2,80.6c5,14.1,10.2,28.2,15.2,42.3
					c4.9,13.4,10.1,26.8,13.4,40.7c3.4,14.1,5.6,28.4,8.2,42.7c1.3,6.9,2.5,13.8,3.8,20.7c0.7,4,1.4,7.9,2.2,11.9
					c0.8,4.6,2.8,9.5-1,13.3c-4.7,4.6-11.3,8.3-16.8,11.7c-5.6,3.4-11.4,6.5-17.3,9.4c-6.6,3.1-13.5,6.1-20.6,8.2
					c-6.3,1.8-12.3,2.5-18.3,5.2c-12.8,5.7-25.3,11.3-39.1,14.4c-14.2,3.2-28.7,4.8-43.2,5.7c-26.8,1.7-53.7,0.8-80.5,3
					c-24.9,2-49.9,6.4-72.5,17.4c-21.9,10.7-41.4,31.7-66.9,33.2c-13.8,0.8-27.2-4.3-39.8-9.2c-13.2-5.1-26.3-10.8-39.3-16.5
					c-24.4-10.7-48.9-21.6-74.3-29.7c-12.6-4-25.4-7.3-38.5-9.5c-12.2-2.1-25-4.4-37.3-2.2c-13.1,2.4-25.6,8.4-37.7,13.9
					c-12.1,5.5-23.9,11.5-35.4,18.2c-23.1,13.6-44.2,30-63.8,48.3c-18.8,17.5-37.3,35.2-62.5,42.7c-11.8,3.5-24,5.7-35.4,10.5
					c-12.8,5.4-23,15.1-36,20c-13,4.9-26.8,8.2-40.2,12.1c-14.7,4.2-29.3,8.5-44,12.7c-17.6,5.1-46.2,11-45.6,34.7
					c0.3,12.3,8.2,23.1,14.2,33.3c6.6,11.3,12.8,22.9,18.3,34.7c11.6,24.7,20.4,51,23.9,78.2c1.3,10.6,2.6,23-2.7,32.7
					c-2.6,4.7-6.6,7.6-11.7,9c-5.9,1.6-15.6,3.4-21.1-0.3c-4.7-3.2-5.6-11.2-1.4-15.2c4.4-4.1,11.9-2.7,15.1,2
					c1.8,2.6,6.1,0.1,4.3-2.5c-4.8-7-15.2-9.4-22.1-3.8c-6.5,5.3-6.7,16-0.9,21.9c7.1,7.3,22.5,5.1,31,1.5
					c8.9-3.7,13.3-12.5,14.8-21.6c1.9-11.5,0-23.5-2-34.9c-2.4-13.4-5.9-26.5-10.4-39.3c-9.2-26.1-22.2-50.2-36.1-74
					c-7-12.1-13.1-27.3-0.4-38c9.4-7.9,22.8-10.3,34.3-13.7c15.3-4.4,30.6-8.9,45.9-13.3c13.9-4,28.3-7.3,41.6-12.8
					c13-5.4,23.3-15.3,36.5-20.3c12.4-4.7,25.7-6.6,38.2-11.2c24.1-8.7,42.2-27.1,60.6-44.1c21.2-19.7,44.5-36.8,69.8-50.6
					c13.1-7.2,26.8-13.6,40.7-19.3c6.3-2.5,12.7-4.9,19.2-6.4c7.3-1.7,14.8-1.4,22.1-0.6c57.1,6.3,108,34.2,160.5,55.3
					c13,5.2,26.5,10.8,40.6,11.9c12.2,0.9,23.7-2.5,34.4-8.1c11.6-6.1,22-14.2,33.3-20.8c11.6-6.8,24.2-11.6,37.1-15
					c55.2-14.2,113.2-2.8,168.6-15.8c14.1-3.3,26.9-9.6,40.1-15.3c6.1-2.6,12.8-3,19-5.2c6.7-2.3,13.3-5.1,19.7-8.2
					c11.6-5.6,24.7-12.5,34.1-21.6c4.1-4,3.4-8.5,2.5-13.7c-1.4-7.9-2.9-15.8-4.3-23.7c-2.8-15.2-5.4-30.4-8.4-45.5
					c-3-14.9-7.8-29-12.9-43.2c-10.3-28.4-21.3-56.7-29.7-85.7c-4.1-14.2-7.4-28.7-9.3-43.4C1287.5,181.9,1282.5,181.9,1282.9,185.1
					L1282.9,185.1z"/>
			</g>
		</g>
		<g id="Nov_14_2015_1_" class="st0">
			<g id="XMLID_77_" class="st1">
				<path id="XMLID_81_" class="st34" d="M377.5,879.4c12.4,0,30.8-3.4,29.1-19.8c-0.5-4.9-2.8-9.2-4.9-13.6
					c-2.6-5.3-4.9-10.8-7-16.3c-3.8-10.1-7-20.4-9.9-30.7c-6-21.6-11.3-43.3-16.9-65c-2.8-10.7-5.7-21.4-8.3-32.2
					c-2.1-8.7-4-18.5-1-27.2c3.5-10.1,13.5-13.7,23.1-15.8c10.3-2.3,20.6-4.3,30.8-6.8c21.4-5.2,42.5-11.5,63.1-19
					c9.5-3.4,18.9-7.1,28.3-11.1c5.1-2.2,10.2-4.4,15.3-6.8c3.9-1.8,8.2-3.6,11-7.1c4.2-5.1,3.6-12.3-2.2-15.8
					c-3.7-2.2-8.4-3.2-7.3-8.6c1-4.8,5.5-7.8,10-8.6c9.8-1.7,19.5,2.3,29-2.1c6.8-3.2,11-10,8.2-17.4c-2.8-7.2-12-13.9-19.8-14.1
					c-7.1-0.2-13.2,6.8-9.5,13.6c1.5,2.8,5.9,0.3,4.3-2.5c-1.9-3.5,2.3-6.1,5.2-6.1c2.4,0.1,4.7,1.2,6.7,2.3c4,2.3,9,6.3,9,11.4
					c0.1,9.3-12.5,10.4-19.1,10c-7.3-0.4-16-1.8-22.4,2.8c-4.2,3-7.4,8.3-6.8,13.5c0.3,2.4,1.3,4.5,3.1,6.2c2.5,2.3,8.2,3,9.3,6.6
					c1.5,5.2-5.2,8.6-8.8,10.3c-4.7,2.2-9.5,4.3-14.3,6.4c-18,7.8-36.4,14.5-55.1,20.3c-18.3,5.7-36.9,10.6-55.7,14.6
					c-14.2,3.1-32.4,4.5-39.2,19.6c-6.5,14.3-0.3,31.5,3.4,45.7c5,19.5,10.1,39.1,15.1,58.6c5.4,20.9,10.6,42,18.9,62
					c1.8,4.4,3.9,8.7,5.9,13.1c2.4,5.2,5.5,11.7,1.9,17.1c-4.5,6.9-15.3,7.2-22.6,7.2C374.2,874.4,374.2,879.4,377.5,879.4
					L377.5,879.4z"/>
			</g>
		</g>
		<g id="Nov_21_2015_2_" class="st0">
			<g id="XMLID_71_" class="st1">
				<path id="XMLID_75_" class="st35" d="M547.6,565.8c-20.9,9.1-43.2,13.9-65.4,18.9c-22.6,5-45.1,10.5-66.7,19.1
					c-1.2,0.5-2.2,1.7-1.7,3.1c6.5,19.6,14,38.8,22.5,57.6c0.5-1.2,1-2.4,1.5-3.7c-27.7,10.6-55.8,21.2-85.5,24.1
					c-2.1,0.2-3.4,2.6-1.8,4.3c6.3,6.6,12.6,13.2,18.7,20c3.1,3.4,8,7.3,4.9,12.1c-1.9,3-3.6,6.2-4.2,9.7c-1.3,6.6,0.4,13.1,2,19.5
					c2,7.9,2.9,16.1,5.2,23.9c2.3,7.8,6.7,14.6,9.7,22.2c3.1,7.8,4.5,16.2,6,24.5c1.6,8.5,3.2,17.1,4.7,25.6
					c1.4,7.5,5.5,18.7,1.7,26c-4.1,8.2-19,11.3-26.6,6.9c-4-2.3-7.6-7.3-6.3-12.2c1.2-4.3,6.3-7.5,10.5-5.6c2.9,1.3,5.5-3,2.5-4.3
					c-6-2.7-12.9-0.4-16.4,5.2c-3.8,6.2-1.4,14,3.8,18.7c11.8,10.8,37.4,3.7,38.7-13.3c0.8-9.9-2.8-20.8-4.5-30.5
					c-2.1-11.3-3.7-22.8-6.6-34c-2.8-10.6-8.9-19.5-12.1-29.9c-1.5-4.7-2.3-9.6-3.3-14.5c-1.1-5.6-2.7-11.1-3.8-16.8
					c-1.3-6.6-0.7-12.4,2.9-18.2c2-3.2,4.1-6.5,2.1-10.3c-2.6-4.8-7.7-8.9-11.3-12.8c-4.9-5.3-9.8-10.5-14.7-15.6
					c-0.6,1.4-1.2,2.8-1.8,4.3c30.2-3,58.6-13.6,86.8-24.3c1.6-0.6,2.2-2.1,1.5-3.7c-8.4-18.4-15.7-37.2-22-56.4
					c-0.6,1-1.2,2.1-1.7,3.1c43.1-17.2,90.7-19.9,133.3-38.5C553.1,568.8,550.5,564.5,547.6,565.8L547.6,565.8z"/>
			</g>
		</g>
		<g id="Nov_22_2015_2_" class="st0">
			<g id="XMLID_65_" class="st1">
				<path id="XMLID_69_" class="st35" d="M196.6,936.8c24.2-8.2,48.3-16.4,72.5-24.6c10.8-3.7,22.6-6.5,32.9-11.4
					c7.7-3.6,10.6-11.4,9.4-19.6c-1.6-10.3-9.3-18.7-13.6-27.9c-4.5-9.5-7.4-19.8-9.5-30c-4.3-20.9-5.6-42.3-11-63
					c-2.7-10.4-7.6-19.8-10.8-29.9c-3.2-10.5-0.6-21.9,11.9-22.8c6.7-0.5,15.3,0.8,19.6-5.7c2.5-3.8,2.3-8.5,5.1-12.2
					c2.8-3.8,7.2-6.3,11.5-8c8.7-3.5,18.2-4.5,27.3-6.5c12-2.6,23.9-5.8,35.6-9.6c22-7.3,42.8-18.4,65.4-23.9
					c20.8-5,42.8-6.5,62.6-15.1c8.5-3.7,19.7-9.6,24.4-18c2.4-4.4,1-8.6-1.4-12.7c-3.5-6-7.3-12-10.9-17.9c-0.1,1-0.3,2-0.4,3
					c10.7-11.4,28.3-4.3,41.7-4.8c10.7-0.3,24.3-4.5,25.8-17c1.5-11.9-10.7-22.4-22.2-20.8c-12.7,1.8-20.4,15.3-19.3,27.3
					c0.3,3.2,5.3,3.2,5,0c-1-11.1,7.7-25.6,20.5-21.9c5.4,1.5,10.6,6.8,11.1,12.6c0.4,5.7-3.6,10.2-8.5,12.4
					c-18.3,8.2-42.2-7.7-57.7,8.7c-0.7,0.8-1,2.1-0.4,3c3,4.9,6,9.8,8.9,14.7c2,3.2,5.2,6.8,3.4,10.9c-1,2.4-3.6,4.4-5.6,6
					c-7.4,6.2-16.3,10.4-25.4,13.3c-18.2,5.9-37.5,7.4-56,12.2c-21.8,5.7-41.9,16.5-63.3,23.4c-11.1,3.6-22.4,6.7-33.8,9.1
					c-9,1.9-18.3,3-27,6.2c-6.8,2.5-13.4,6.3-17,12.8c-2.1,3.8-1.8,9.6-5.8,11.9c-3.6,2.1-8.7,1.3-12.7,1.5c-7.4,0.4-13.8,3-17,10.1
					c-3.8,8.4-1.3,17.4,2.1,25.5c8,19.1,11.8,38.5,14.8,58.9c2.8,19.5,5.6,39.2,13.8,57.3c4.6,10,15.1,20.6,13.9,32.3
					c-0.8,7.8-7.3,9.9-13.8,12.2c-6.5,2.2-13,4.4-19.5,6.6c-26,8.8-52.1,17.6-78.1,26.5C192.2,933.1,193.5,937.9,196.6,936.8
					L196.6,936.8z"/>
			</g>
		</g>
		<g id="Nov_27_2015_2_" class="st0">
			<g id="XMLID_59_" class="st1">
				<path id="XMLID_63_" class="st36" d="M546.4,570.3c22.8-7,47.6-12.2,67.8-25.4c18.5-12,32.7-29.2,49.5-43.2
					c4-3.4,8.2-6.7,12.9-9.2c6.5-3.5,13.7-4.5,21-5c12.7-0.8,25.3-1.7,37.9-3.3c25.5-3.2,50.8-7.2,76.6-5.8
					c12.6,0.7,25.1,2.2,37.8,1.2c12.4-1,24.4-3.8,36.5-6.4c6.5-1.4,13-2.7,19.4-4.1c4.1-0.9,7.2-2,7.9-6.6c0.7-4.7-1-10.4-1.8-15
					c-1.1-6-2.5-11.9-4.2-17.8c-1.7-5.9-3.6-11.6-5.8-17.3c-2.1-5.3-4.7-10.5-6.3-16.1c-3.1-11.1-2.6-23.1-5.8-34.3
					c-0.6-2.1-2-4.2-0.4-6c0.9-1,3.2-1.4,4.5-1.7c3.5-0.9,7-1.1,10.6-1.5c10.6-1.1,20.7-5.5,30.7-8.9c6.7-2.3,13.4-4.8,20.2-6.7
					c6.6-1.9,13.4-2.9,20.1-4c13.7-2.3,28.8-3,41.7-8.5c7.2-3.1,13.7-3.8,21.5-4.5c4.6-0.4,9.9-1,13.3-4.5c2.5-2.5,3.7-6.6,2.4-10
					c-0.7-1.8-1.9-3-3.5-4c-0.7-0.5-1.6-0.7-2.3-1.2c-2.6-1.6-2.3-2.2,1-1.7c-0.1,1.5-0.3,3-0.7,4.4c-0.8,3.1,4,4.5,4.8,1.3
					c1-3.9,1.7-8.4-1.4-11.6c-2.5-2.6-6.6-2.9-9.2-0.2c-2.2,2.4-2.2,6-0.6,8.7c0.9,1.4,2.2,2.5,3.6,3.4c1.5,0.9,2.2,0.9,3.1,2.5
					c1.5,2.6,0,4.9-2.6,6.2c-5.4,2.9-12.8,1.7-18.8,2.6c-6.1,0.9-11.2,3.9-17,5.7c-5.8,1.9-12.1,2.5-18.1,3.5
					c-6.8,1.1-13.6,2.2-20.5,3.4c-13,2.1-25,5.8-37.5,10.1c-10.6,3.6-21.2,8.1-32.4,9.2c-5.5,0.6-13.9,0.7-17.6,5.5
					c-2,2.6-1.2,5.5-0.3,8.4c1.6,5.4,2.7,10.8,3.5,16.4c0.9,5.9,1,11.9,2.4,17.7c1.5,6.1,4.5,11.8,6.7,17.7
					c4.6,11.9,8.1,24.3,10.3,36.9c0.4,2.5,2,7.4,1.4,9.8c-1.1,4.6-6.5,4.3-10.1,5.1c-7.1,1.5-14.2,3-21.4,4.5
					c-13.1,2.7-26,5.1-39.4,4.9c-13.1-0.2-26.1-2-39.3-1.9c-13.5,0-26.9,1.6-40.3,3.3c-13.4,1.7-26.7,3.6-40.1,4.9
					c-12,1.1-24.9,0.2-36.6,3.8c-11.7,3.6-21.4,12.7-30.2,20.9c-9.3,8.6-18.1,17.7-27.9,25.8c-10.8,9-22.6,15.7-35.9,20.5
					c-14,5-28.5,9-42.7,13.4C542,566.4,543.4,571.2,546.4,570.3L546.4,570.3z"/>
			</g>
		</g>
		<g id="Nov_28_2015_4_" class="st0">
			<g id="XMLID_53_" class="st1">
				<path id="XMLID_57_" class="st37" d="M834.5,475.9c-51.5-5.3-104.1-9.1-152,14.4c-22,10.8-41.6,25.7-60.2,41.6
					c-9.8,8.4-19.6,16.8-31,23.1c-5.6,3.1-11.4,5.7-17.4,7.8c-4.5,1.6-11,2.2-14.5,5.8c-2.1,2.1-2.5,5.1-5,6.9
					c-3.3,2.3-7.4,1.8-10.9,0.4c-3.3-1.3-6.3-3.4-9.1-5.6c-5-3.9-1-7.8,2.4-11c5.3-4.9,11.1-9.1,17.5-12.5
					c5.3-2.9,22.5-11.4,23.8,0.4c0.3,3.2,5.3,3.2,5,0c-0.5-4.6-3-8.1-7.4-9.9c-6.2-2.6-12.8-0.1-18.6,2.5
					c-6.2,2.8-12.1,6.4-17.5,10.6c-4.4,3.4-10.8,7.8-12.8,13.2c-1.7,4.7,1.2,7.9,4.7,10.6c4.8,3.8,10.5,7.6,16.8,7.8
					c4.4,0.1,9-1.5,11.8-5.1c0.9-1.1,1.2-2.5,2-3.6c1.6-2.3,3.4-2.6,5.9-3.4c3.8-1.2,7.7-2.3,11.4-3.8
					c27.6-10.8,47.1-32.7,70.6-49.9c23.9-17.5,50.4-30.9,79.8-36.3c34.6-6.3,70.2-2.6,104.9,0.9
					C837.7,481.2,837.7,476.2,834.5,475.9L834.5,475.9z"/>
			</g>
		</g>
		<g id="Nov_28_2015_1_" class="st0">
			<g id="XMLID_47_" class="st1">
				<path id="XMLID_51_" class="st38" d="M541.8,565.2c23.9,4,46.2-7.6,64.1-22.6c10-8.4,19.1-17.8,28.7-26.7
					c7.3-6.7,21.7-22.6,32.8-15.1c5.1,3.4,6.4,10.6,4.7,16.2c-1.9,6.1-6.8,10.9-11.9,14.4c-5,3.4-10.6,5.8-16,8.5
					c-6.2,3.1-11.9,6.7-17.5,10.8c-9,6.5-18.2,13.3-24.7,22.5c-7,9.8-9,21.7-12,33.1c-3.3,12.6-8.8,24.2-16.3,34.8
					c-3.6,5.1-7.8,9.2-11.8,13.8c-4,4.5-6.8,10-9.7,15.2c-12.8,23.2-24.2,47.3-33.8,72c-4.9,12.5-8.1,24.9-9.6,38.2
					c-1.5,13.2-2.1,26.7-7.1,39.1c-8.5,20.8-28.7,34.8-49.7,41.1c-14.6,4.4-30.1,5.3-45.2,4.8c-7.7-0.3-15.5-1-23.2-1.9
					c-5.2-0.6-11.5-2.3-16.3,0.6c-9.1,5.5-2.2,17.6,4.6,21.6c4.2,2.4,9.7,3.4,14,0.7c3.9-2.5,5.8-7.2,4.3-11.5
					c-1.1-3-5.9-1.7-4.8,1.3c1.6,4.6-3,7.4-7.1,6.7c-3.2-0.5-6.4-2.8-8.3-5.4c-2.1-3-3.3-7.4,0.8-9.4c2.7-1.3,6.3-0.3,9.2,0
					c12.9,1.5,25.9,2.7,38.9,2.4c22.3-0.5,44.8-5.6,63-18.9c18-13,27.1-31.1,30-52.9c1.7-12.4,2.1-25,5.3-37.1
					c3.5-13.2,9.1-25.9,14.5-38.3c5.3-12.1,10.9-23.9,16.9-35.6c5.4-10.5,10.6-22.8,19-31.4c8.2-8.3,15-18.3,20-28.8
					c5.1-10.7,7.5-21.9,10.6-33.2c3.4-12.5,9.5-22.1,19.4-30.4c9.6-8.1,20.1-15.3,31.4-20.8c9.4-4.7,19.5-9.5,25.2-18.8
					c4.6-7.4,5.1-17.3-0.5-24.3c-6.9-8.6-18-6.4-26.2-1.2c-11.2,7.1-20.5,17.5-29.9,26.6c-19.8,19.1-44.8,40-74.4,35.1
					C540,559.8,538.7,564.6,541.8,565.2L541.8,565.2z"/>
			</g>
		</g>
		<g id="Nov_29_2015_2_" class="st0">
			<g id="XMLID_41_" class="st1">
				<path id="XMLID_45_" class="st39" d="M374,877.4c9.9,4.7,21-1.3,25.6-10.7c6.7-13.4-0.3-29.5-4.6-42.5
					c-11-33.1-22.3-66.2-32.8-99.5c-2.6-8.2-5-16.6-6.8-25c-1.8-8-5.4-19.2-1.8-27c3.4-7.4,11.7-10.4,19.1-11.9
					c7.6-1.5,15.4-2.2,23.1-3.5c32.7-5.4,64.9-14,95.8-25.7c8.1-3.1,16.3-6.3,24.2-9.9c5.8-2.6,11.7-5.8,16.1-10.5
					c10.9-11.7,4.6-26-4.9-36.2c-0.4,1.4-0.7,2.8-1.1,4.2c10.2-1.9,21.3-2.9,31.1-6.3c7-2.4,13.2-7.5,13.3-15.4
					c0.2-6.9-5.3-12-12.2-11.2c-8.7,1-12.7,9.3-14.5,16.9c-0.7,3.1,4.1,4.5,4.8,1.3c1.4-5.7,4.3-13.5,11.4-13.3
					c4.1,0.1,6,3.9,5.4,7.5c-0.6,3.3-2.7,5.8-5.4,7.5c-4.6,2.9-10.4,3.5-15.7,4.5c-6.5,1.2-13,2.4-19.5,3.6
					c-1.9,0.4-2.3,2.9-1.1,4.2c4.9,5.2,10.1,12,9.4,19.6c-0.6,7.1-6.4,12-12.1,15.4c-12,7.1-26.1,11.7-39.2,16.4
					c-28.6,10.2-58.1,17.8-88,22.7c-12.7,2-28.1,1.7-38.5,10.4c-10.6,8.8-7.7,22.3-5.3,34.3c3,15.1,7.9,29.7,12.7,44.3
					c5.1,15.5,10.3,31.1,15.4,46.6c5.5,16.6,11.4,33.2,16.5,50c2.5,8.3,5,18.4,0.7,26.6c-3.4,6.4-11.3,11.7-18.5,8.3
					C373.6,871.7,371.1,876,374,877.4L374,877.4z"/>
			</g>
		</g>
		<g id="Dec_4_2015_2_" class="st0">
			<g id="XMLID_35_" class="st1">
				<path id="XMLID_39_" class="st2" d="M375.7,876c16.3-0.1,28.6-15.2,25.4-31.1c-1.9-9.5-7.9-17.6-12.3-26
					c-5.3-10-9.3-20.6-12.8-31.3c-7-21.7-12.4-43.9-18.3-65.9c-3-11.2-6.3-22.4-9.1-33.6c-1.3-5.2-2.6-11.6,1.9-15.6
					c4-3.6,10.6-4,15.6-4.6c10.1-1.2,20.3-1.6,30.2-3.5c10.2-2,18.9-6.4,27.9-11.2c10.5-5.6,20.5-7.5,32.3-8.6
					c10.3-1,19.4-3.5,28.9-7.5c9.1-3.8,17.9-6.1,27.5-8.1c7.1-1.5,14.7-3.7,19.3-9.8c4.6-6,4.8-14,1.9-20.9c-1.7-4-4.5-6.7-7.2-10
					c-2.2-2.6-4.2-5.5-1-8.4c2.1-1.9,5.6-3,8.2-3.7c6.3-1.8,12.1-1.2,18.5-0.3c4.6,0.6,9.4,1.1,13.9-0.6c6.6-2.5,9.9-9.5,9-16.2
					c-2.3-17-27.8-13.4-27,2.8c0.2,3.2,5.2,3.2,5,0c-0.4-8.8,12.9-13.3,16.4-4.4c1.2,3,0.8,6.9-0.9,9.6c-2.9,4.5-8.6,4.7-13.4,4.2
					c-9.1-0.9-17.2-2.3-26.1,1.2c-5.3,2.1-11.9,5.7-10.4,12.4c0.7,2.9,2.8,5.4,4.7,7.5c3.2,3.6,6.1,7.1,6.9,12
					c1.8,9.8-5.3,15.9-13.9,18.4c-7.7,2.2-15.8,2.9-23.4,5.6c-9,3.2-17.5,7.9-27,9.7c-9.7,1.9-19.7,1.5-29.3,4
					c-8.5,2.3-16,7.1-23.8,11c-17.8,9-37.3,6.9-56.2,10.9c-6.8,1.5-13.2,5.1-14.6,12.5c-1.5,8.1,2.2,17,4.3,24.7
					c5.5,20.4,11.1,40.9,16.6,61.3c5.6,20.7,11.4,41.5,21.7,60.4c5,9.1,12.6,19,11.2,30c-1.3,10.3-10.7,18-20.9,18
					C372.5,871,372.5,876,375.7,876L375.7,876z"/>
			</g>
		</g>
		<g id="Dec_5_2015_2_" class="st0">
			<g id="XMLID_29_" class="st1">
				<path id="XMLID_33_" class="st2" d="M767.8,311.5c4.9-1.9,11-5.8,16.2-6.1c5.2-0.3,9.6,9.4,10.5,13.5c1.2,6,1.2,12.5,1.8,18.6
					c0.2,2.6,1.1,5.8,0.7,8.4c-0.3,2.6-0.3,2.7-2.8,3.9c-1.3,0.6-2.8,1-4.2,1.4c-8.4,2.6-17.5,4.4-24.3,10.3
					c-3.5,3-5.4,7.3-8.8,10.5c-2.8,2.7-5.9,4-5.7,8.5c0.2,5.4,2.9,11.2,4.3,16.4c1.7,6.3,3.5,12.5,5.2,18.8
					c1.6,5.6,3.1,11.1,5.1,16.5c2.1,5.9,4.9,11.5,6.7,17.5c4.6,15.3,8.5,32.1,23.6,40.5c9.7,5.4,21.1,6.1,31.5,9.4
					c11.4,3.6,20.5,11.9,32,15.7c11.4,3.8,22.8,6.5,33.7,11.9c10.3,5.1,19.1,11.6,28.1,18.6c8.7,6.7,17.8,6.8,28.2,5.3
					c11.1-1.6,21.8-5.3,32.1-9.6c20.8-8.8,40.5-20,62.4-26.1c24.6-6.8,50.5-9.3,75.9-11.4c13-1.1,26-1.7,39.1-1.8
					c12.3-0.1,24.6-0.2,36.8-2c23.6-3.5,45.4-13.8,68.2-20.4c11.2-3.2,22.3-6.1,33-10.6c10-4.2,19.6-9.2,28.7-15.1
					c19.3-12.6,34.4-30.3,53.4-43.1c19.3-13,42.2-18.1,64.9-21.8c24.4-4.1,48.6-8.4,72.6-14.2c10.8-2.6,22.5-4.1,32.9-8
					c4.3-1.6,8.1-4.2,12.2-6.3c5.5-2.8,11.1-5.4,16.2-8.8c4.2-2.8,8.2-6,11.8-9.5c3.6-3.5,6.6-8.4,11-10.8c2.7-1.5,5.9-1.5,8.9-2.2
					c2.6-0.6,5.1-1.7,7.5-2.7c4.7-2.1,9.6-4.2,13.8-7.2c7.9-5.5,11.7-13.6,9.7-23.2c-1.1-5.2-3.9-9.7-5.7-14.7
					c-2.2-6-3.4-12.4-5.1-18.6c-1.6-5.9-3.2-11.8-4.8-17.7c-1.7-6.2-4-12.6-4.6-19c-0.5-5.1-1.4-9.1-3.5-13.8
					c-2.5-5.5-3.8-10.9-5.2-16.7c-0.8-3.3-1.7-9.8-4.8-11.8c-1-0.7-2-0.5-3.2-0.5c-3.9,0.2-8,1.2-11.8,1.9
					c-4.6,0.7-9.2,1.2-13.5,3.2c-5.8,2.6-11,4.6-17.1,6.1c-4.8,1.2-9.5,2.9-13.7,5.5c-2.4,1.4-7.4,5.7-9.8,2.2
					c-2.5-3.8,5.9-2.1,7.5-0.9c2.6,1.9,5.1-2.4,2.5-4.3c-4.6-3.4-17.3-3.3-16.4,5c0.4,3.7,5.9,6.1,9.1,6.4c4.4,0.4,7.4-2.9,11-4.9
					c5.1-2.7,10.5-3.9,16-5.3c5.6-1.5,10.3-4.6,15.8-6.3c5.1-1.6,10.7-1.9,15.9-2.8c2.7-0.4,4.2-1.5,6,1.4c0.5,0.8,0.8,2.4,1,3.2
					c0.9,3.2,1.5,6.5,2.3,9.7c1.2,4.6,3,8.6,4.9,12.9c2.5,5.8,2.1,12.1,3.7,18.2c3.2,12,6.7,24,9.8,36c1.4,5.5,2.7,11,4.9,16.2
					c2.8,6.4,6.2,13.1,3.6,20.2c-2,5.4-7.2,8.7-12,11.3c-5.3,2.8-10.9,5.6-16.9,6.7c-4.5,0.9-8,1.7-11.6,4.7
					c-4.1,3.5-7.2,8-11.2,11.5c-8.9,8-19.7,12.3-29.9,18.2c-9.6,5.5-21.2,6.6-31.9,9.2c-12.3,3-24.6,5.9-37,8.4
					c-23.3,4.7-47.2,7-70.2,13.1c-10.7,2.8-21.1,6.6-30.8,12c-9.6,5.4-18.1,12.4-26.2,19.6c-17.6,15.6-34.8,30.1-56.3,40.2
					c-10.8,5-22,8.7-33.5,11.7c-11.6,3.1-22.9,7.2-34.2,11.2c-11.4,4-22.8,7.7-34.7,9.9c-12.8,2.4-25.9,2.4-39,2.6
					c-25.6,0.3-51.1,2.5-76.5,5.8c-23.5,3.1-46.3,7.9-68,17.5c-20.7,9.1-40.7,20.8-63.2,25.1c-5.7,1.1-12.2,2.1-18,1.2
					c-6.5-1.1-11.2-6-16.2-9.9c-8.8-6.8-18.5-12.5-28.7-16.9c-10.4-4.5-21.4-6.6-31.9-10.7c-11.3-4.4-20.2-12.3-32.1-15.6
					c-10.7-2.9-22.9-3.8-31.8-11.2c-6.7-5.6-10.1-13.8-12.7-21.9c-1.3-4.1-2.4-8.2-3.6-12.3c-1.7-5.7-4.3-11.1-6.3-16.7
					c-4.4-11.8-7.3-24.1-10.6-36.2c-0.9-3.1-1.7-6.3-2.6-9.4c-1.1-3.8-2.2-6.1,1.1-9.3c3.3-3.2,5.6-7.2,8.8-10.4
					c7.3-7.4,18.5-8.4,27.8-11.8c2.9-1,5.8-1.9,6.6-5.2c0.5-2.2-0.3-5-0.4-7.2c-0.3-3.7-0.7-7.5-1-11.2c-0.4-5-0.4-10.2-1.8-15.1
					c-1.3-4.8-4.5-8.9-7.9-12.4c-2.6-2.7-4.6-3.8-8.4-2.9c-5.6,1.3-10.9,4-16.2,6.1C763.5,307.8,764.8,312.7,767.8,311.5
					L767.8,311.5z"/>
			</g>
		</g>
		<g id="dec_18_2015_2_" class="st0">
			<g id="XMLID_23_" class="st1">
				<path id="XMLID_27_" class="st3" d="M549.4,565.1c-2.5-14.3-5.9-28.4-10.2-42.2c-2.2-6.9-4.5-13.8-7.1-20.5
					c-1.5-3.9-2.8-8-7.6-8.2c-5.6-0.2-12.1,3.5-17.3,5.1c-7.2,2.3-14.5,4.5-21.8,6.6c-14,4-28.1,7.5-42.4,10.5
					c0.9,0.4,1.9,0.8,2.8,1.1c-5.2-7-10.2-14.4-13.5-22.5c-3.3-8.1-4.2-16.5-5.2-25.1c-2.1-16.7-8-32.3-14.2-47.8
					c-3.1-7.7-6.2-15.3-8.8-23.1c-1.3-3.9-2.9-8-3.4-12.1c-0.9-6.7,3.5-8.3,9.4-8.5c17.8-0.6,35.2-2.9,52.4-7.5
					c-0.8-0.2-1.6-0.4-2.4-0.6c6.3,5.7,13.8,11.2,22.8,10.7c6.9-0.4,13.8-4.6,15-11.8c1-6-2-12.5-8.2-14c-7.5-1.9-17.2,2.4-20.4,9.4
					c-1.3,2.9,3,5.5,4.3,2.5c2.1-4.6,7.6-7.4,12.7-7.4c5.5,0.1,8.1,5.5,6.1,10.3c-4.8,11.3-20.1,4.2-26.4-1.1
					c-3.6-3-3.9-3.1-8.5-1.9c-5.1,1.3-10.3,2.4-15.5,3.3c-10.6,1.9-21.2,2.7-31.9,3c-6.6,0.2-13.4,1.8-14.4,9.4
					c-1.1,7.9,3.3,16.9,6,24.1c6.7,18.2,15.3,35.8,19.2,54.9c2.1,10.4,2.1,21.3,5.6,31.4c3.4,9.8,9.1,18.5,15.2,26.8
					c0.7,1,1.6,1.4,2.8,1.1c24.8-5.3,49.2-12,73.2-20.2c1.1-0.4,2.4-1.1,3.6-1.2c2.9-0.4,4.5,0.5,5.9,2.9c1.5,2.6,2.3,6,3.3,8.9
					c2,5.6,3.9,11.3,5.6,17.1c3.7,12.4,6.6,25,8.9,37.7C545.2,569.6,550,568.3,549.4,565.1L549.4,565.1z"/>
			</g>
		</g>
		<g id="Dec_19_2015_2_" class="st0">
			<g id="XMLID_17_" class="st1">
				<path id="XMLID_21_" class="st4" d="M1119.3,305.1c10,30.7,20,61.4,29.9,92.1c4.9,15,9.8,30.1,14.7,45.1
					c1.6,4.9,2.9,10.9,7.3,14.2c4.4,3.4,10.5,2.4,15.6,1.8c7-0.7,13.9-2,20.6-3.9c3.6-1,7.1-2.2,10.5-3.5c0.9-0.4,2.4-1.2,3.4-1.4
					c4.5-0.9,5.2,0,6.6,3.2c3.2,7.4,6.2,15.9,2.5,23.7c-3.1,6.3-9.4,10.6-15.9,12.8c-14.3,4.7-31.2,2.9-46,2.6
					c-15.7-0.3-31.3-0.7-47-0.3c-28,0.8-56.4,4.6-81.9,16.9c-12.6,6.1-23.7,14.8-36,21.5c-12.5,6.8-26.3,10.4-40.5,10.6
					c-13.2,0.2-26.3-2.4-38.6-7.2c-13.5-5.3-25.1-13.7-36.4-22.6c-10.4-8.1-20.6-16-33-20.7c-11.9-4.5-24.7-6.3-37.3-7.1
					c-15.3-0.9-30.9-1-46.2-0.6c-16.7,0.5-32.6,3.6-48.6,8.4c-8.3,2.5-16.8,5-24.9,8.2c-7.1,2.8-13.3,7.1-20,10.7
					c-7.8,4.1-16.6,6.2-25.4,6.3c-4.1,0-8.5-0.2-12.5-1.3c-3.1-0.9-10.9-5.8-5.4-9.4c-1.3-0.7-2.5-1.4-3.8-2.2
					c0.1,7.9-2.6,15.6-7.9,21.4c-5.4,5.8-12.7,9.2-19.5,13c-12.8,7.1-28.2,24-43.7,14c-5-3.2-9.8-6.4-15.9-4.1
					c-5.9,2.2-9.1,7.9-10.9,13.6c-1.8,5.3-3.9,11.8,0.2,16.6c4.1,4.7,11.6,6.2,17.4,7.3c5.5,1,15,3.4,19.1-1.7
					c4.8-5.9,5.2-16.8,5.5-24.1c0.1-3.2-4.9-3.2-5,0c-0.2,5.2-0.8,10.3-2.2,15.3c-0.4,1.5-0.8,4.1-1.8,5.2c-2.2,2.2-6.6,1.4-9.3,1.1
					c-4.6-0.5-9.4-1.4-13.8-3c-5.8-2.1-7.9-4.5-6.4-10.9c0.9-3.9,2.2-8.4,4.9-11.5c4.3-5,9.2-3.8,14.1-0.7c5.7,3.7,11,5.7,17.9,4.7
					c7.7-1.1,14.2-5.4,20.4-9.7c6.9-4.8,14.2-8.6,21.5-12.9c12.5-7.4,20.8-18.7,20.7-33.6c0-1.8-2.1-3.2-3.8-2.2
					c-3.6,2.4-4.9,6.6-3.5,10.7c1.7,4.9,6.8,7.2,11.5,8.2c13.2,2.9,27.6,0.6,39.6-5.4c7.5-3.8,14.3-8.6,22.3-11.5
					c7.6-2.8,15.4-5.2,23.2-7.5c16.2-4.9,32.3-7.8,49.2-8c14.7-0.2,29.5-0.2,44.2,0.7c14.4,0.9,29,3.4,42,9.8
					c13.7,6.8,24.9,17.8,37.4,26.6c11.4,8,24,14.1,37.5,17.6c26.9,6.9,53.8,2.7,77.4-11.8c13.4-8.2,26-17,40.9-22.5
					c14.9-5.5,30.6-8.5,46.3-10c32.9-3.2,65.9,0.6,98.8-1c12.4-0.6,25.7-3.6,33.5-14.2c7.8-10.5,4.7-25.2-1.8-35.7
					c-3.5-5.7-8.2-3.1-13.2-1.1c-7.4,2.9-15.2,5.1-23.1,6.5c-4,0.7-8.1,1.2-12.2,1.5c-5,0.3-8.7-0.5-10.9-5.4
					c-3.4-7.4-5.3-15.7-7.8-23.4c-10.5-32.3-21-64.5-31.5-96.8c-2.6-8.1-5.3-16.3-7.9-24.4C1123.1,300.7,1118.3,302,1119.3,305.1
					L1119.3,305.1z"/>
			</g>
		</g>
		<g id="Dec_22_2015_2_" class="st0">
			<g id="XMLID_11_" class="st1">
				<path id="XMLID_15_" class="st5" d="M1406.5,261.3c2,4.5,7.1,13.8-1,14.8c-3.4,0.4-6.8,0-10.2,0.6c-7.7,1.3-12.9,5.6-18.9,10.2
					c-7.7,6.1-15.8,10.1-25.8,10.6c-9.5,0.5-18.9,0.5-28.3,1.4c-1,0.1-2.2,0.7-2.4,1.8c-1.5,7.7,1.9,14.1,5.9,20.4
					c2.2,3.4,4.4,6.8,5.4,10.8c1.2,4.8,1.6,9.5,3.2,14.2c3.2,9.5,4.9,19.2,6.7,29.1c1.7,9.4,3.7,18.6,5.5,28c1.7,8.6,2.5,18-1,26.2
					c-3.5,8.3-11.4,14-18.2,19.5c-13.9,11.4-29.2,21.5-47,25.4c-19.4,4.3-39.9,5.6-59.7,7.6c-20,2-40.1,3.7-60.2,5.1
					c-19.3,1.3-38.7,1.9-58.1,3c-17.5,1-35.3,2.9-52,8.7c-16.1,5.5-29,15.3-42.2,25.6c-7.4,5.8-14.2,10.3-23.4,12.8
					c-8.4,2.3-16.9,4.4-25.6,5.8c-9.7,1.6-19.9,2.9-29.7,1.2c-9.1-1.5-17-6-24.4-11.2c-14.9-10.5-29.3-21.1-45.3-30
					c-15.5-8.7-31.7-18.6-48.7-24.1c-17.1-5.6-35.3-3.7-52.4,0.9c-18.7,5.1-36.8,12.7-54.9,19.5c-18,6.7-36.8,15.5-56.3,15.7
					c-6.4,0.1-24.6-1.1-21.7-12c0.5-1.7,4.1-4.8,6.1-2.7c2.1,2.3,0.1,6.3-0.8,8.5c-1.7,3.6-3.6,7.2-5.6,10.6
					c-8.2,13.5-19.5,25.2-32.6,33.9c-6.5,4.3-13.4,8-20.6,10.8c-7.8,3-18.4,7.3-26.6,3.7c-4.9-2.1-8.2-7.2-5.7-12.4
					c2.1-4.3,6.4-6.6,10.8-7.7c4.1-1,9.3-1.7,13.5-1.2c6.4,0.7,7.4,6.5,6.1,11.9c-2,8.1-8.8,14.5-16.6,17.1c-3,1-1.7,5.8,1.3,4.8
					c7.5-2.5,14-7.6,17.7-14.6c3.1-5.9,4.9-14.4,0.3-20.1c-4.9-6-15.3-4.3-22-3c-7.3,1.4-14.7,5.8-16.6,13.5
					c-1.8,7.2,3,13.9,9.5,16.5c8.6,3.5,18.5,0.3,26.8-2.6c16.2-5.7,31-15.3,43-27.5c5.9-6,11.2-12.7,15.6-19.9
					c3.4-5.6,10.8-15.8,8.3-22.7c-2-5.3-9.2-6.3-13.4-3c-5.3,4-4.1,12.1,0,16.5c5.8,6.3,16.2,7,24.2,6.8c10.5-0.3,20.7-3,30.5-6.3
					c21.9-7.4,43.3-16.4,65.1-24c20.7-7.2,43.3-13.1,64.9-6.3c10.7,3.4,20.6,9.1,30.5,14.3c9.8,5.1,19.5,10.4,29,16
					c9,5.4,17.7,11.3,26.1,17.6c7.7,5.8,15.4,11.6,24.4,15.1c19.2,7.4,42,2,61.1-3c9.2-2.4,17.3-4.9,25.1-10.6
					c7.8-5.8,15.2-12.2,23.3-17.7c18-12.2,39.2-17.1,60.6-19.1c22.1-2.1,44.3-2.3,66.5-3.7c23.4-1.5,46.8-3.4,70.1-5.9
					c11.8-1.2,23.6-2.6,35.4-4.1c10.4-1.3,20.8-2.5,30.7-6c17.9-6.3,33.6-18.4,47.6-30.9c7.1-6.4,12-13.7,13.2-23.3
					c1.2-9.2-0.8-18.1-2.8-27c-2.5-11.5-4.3-23.1-6.6-34.6c-1-5-2.2-9.8-3.8-14.7c-1.9-5.5-2.2-11.2-3.9-16.7
					c-2.9-9-12.8-16.8-10.8-27c-0.8,0.6-1.6,1.2-2.4,1.8c11.2-1.1,22.8-0.4,33.9-2c9.8-1.4,18.1-6.9,25.6-13.1
					c4.2-3.5,8.5-6.2,14-7.2c4.9-0.9,10.1,0.3,14.7-1.8c9-3.9,3.1-14.8,0.2-21.1C1409.5,255.8,1405.2,258.4,1406.5,261.3
					L1406.5,261.3z"/>
			</g>
		</g>
	</g>
</g>
<g id="UI">
	<g id="Streets">
		<path id="Bloor_street_2_" class="st40" d="M0,506.2l415.9-130.3c22.5-7.1,46.2-9.9,69.7-8.4l43.7,2.8c19.6,1.3,39.3-1,58.2-6.5
			L1282,158.2l45.8-13.5"/>
		<path id="Queen" class="st40" d="M62.5,719.2l482.2-147.3c4.4-1.3,8.7-2.7,13-4.2c25.2-8.5,49.5-19.3,72.8-32.3l65.2-36.2
			c31.1-17.3,66.7-24.9,102.2-21.8l9.5,0.8c22.2,1.9,44.5-0.3,65.8-6.6l928.2-272.5"/>
		<path id="Gardiner" class="st40" d="M71.5,747.7l455.9-136.4c32-9,62.2-23.2,89.6-42.1l74-51.2c34.3-23.8,76.9-32.2,117.7-23.3
			l104.1,22.8c49.4,10.8,100.9,7.2,148.3-10.3l0.3-0.1c20.4-7.5,41.7-12,63.4-13.2l58.2-3.3c13.6-0.8,27.1-2.8,40.4-6l42.6-10.3
			c20-4.8,39.1-12.8,56.6-23.5l26-16c15.2-9.3,31.4-16.9,48.3-22.7l106.6-36.1"/>
		<path id="Lakeshore" class="st40" d="M121,957.7l322.5-100.3c45.7-14.2,79.5-52.9,87.5-100l8.1-47.8c3.5-20.3,13.5-39,28.5-53.1
			l129.9-121.9c30.2-28.3,73.4-37.9,112.7-25.1l154.2,50.4c20.6,6.7,42.7,7.7,63.8,2.8l59-13.7c12-2.8,22.6-10,29.6-20.1l0.6-0.9
			c4.8-7,12.1-12,20.3-14l155.9-38.1c10.1-2.5,19.6-6.8,28.2-12.6l36.1-24.8c7-4.8,14.6-8.6,22.6-11.4l122.5-42.2
			c1.3-0.4,2.6-0.8,4-1l13-2c7.2-1.1,14.2-3.6,20.5-7.3l160.9-95.2c9.7-5.7,20-10.3,30.7-13.7l137.4-43.4"/>
		<line id="Stephen_1_" class="st40" x1="536.1" y1="494.3" x2="557.7" y2="567.7"/>
		<line id="Berry" class="st40" x1="444.2" y1="522" x2="536.1" y2="494.3"/>
		<line id="Prine_Edward" class="st40" x1="400.2" y1="380.8" x2="444.2" y2="522"/>
		<line id="Royal_York" class="st40" x1="357.7" y1="394.1" x2="489" y2="832"/>
		<path id="Islington" class="st40" d="M402.7,870l-9-56.8c-4.6-29.4-12.8-58.1-24.2-85.6l-37.7-90.8l-63.7-214.7"/>
		<line id="Kipling" class="st40" x1="242.4" y1="664.2" x2="315.6" y2="897.1"/>
		<line id="Evans" class="st40" x1="77.3" y1="768" x2="438.7" y2="664.2"/>
		<line id="Browns_Line" class="st40" x1="77.3" y1="768" x2="136.9" y2="952.7"/>
		<line id="Roseland" class="st40" x1="112.7" y1="877.7" x2="67.5" y2="891.9"/>
		<line id="Sunset" class="st40" x1="67.5" y1="891.9" x2="73" y2="909.2"/>
		<line id="Parkside" class="st40" x1="738.7" y1="319" x2="783.3" y2="476.7"/>
		<line id="Roncesvalles" class="st40" x1="794.9" y1="302.3" x2="840.2" y2="478.1"/>
		<path id="Howard_Park" class="st40" d="M807.1,349.6l-30.9,9.6c-9.6,3-17.2,10.3-20.6,19.8l0,0"/>
		<line id="Lansdowne" class="st40" x1="865.4" y1="281.4" x2="914.4" y2="460.2"/>
		<path id="College" class="st40" d="M887,355.3l151.4-41c4.8-1.3,9.8-1.6,14.7-1l8,1c5,0.6,10,0.3,14.9-1l177.6-49"/>
		<line id="University" class="st40" x1="1226.2" y1="174.8" x2="1280.8" y2="353"/>
		<line id="Bathurst" class="st40" x1="1099.6" y1="212.2" x2="1182.9" y2="490.5"/>
		<line id="Spadina" class="st40" x1="1155.5" y1="195.6" x2="1241.1" y2="480.2"/>
		<line id="Dufferin" class="st40" x1="921.2" y1="265" x2="971.2" y2="442.9"/>
		<line id="Harbord" class="st40" x1="1003" y1="278.3" x2="1166.7" y2="232.8"/>
		<line id="Borden" class="st40" x1="1129.5" y1="243.2" x2="1144.4" y2="294.4"/>
		<path id="Dundas" class="st40" d="M801,325.9l4.7,4.1c47.5,40.5,110,58.9,171.8,50.5l50.1-6.8c1.4-0.2,2.7-0.5,4-0.8l100.7-28.1
			c4.1-1.2,8.5-1.1,12.6,0.2l4.1,1.3c4.2,1.3,8.6,1.4,12.8,0.2l342.8-98.8"/>
		<path id="Front_1_" class="st40" d="M1173.8,460l55.1-20.3l114.3-33.4c5-1.5,9.7-3.8,13.8-6.8l38.2-28.2"/>
		<line id="Yonge" class="st40" x1="1282" y1="158.2" x2="1362.9" y2="426.5"/>
		<line id="Jarvis" class="st40" x1="1327.8" y1="144.7" x2="1406.4" y2="408.8"/>
		<line id="Wellesley" class="st40" x1="1343.8" y1="198.4" x2="1243" y2="229.5"/>
		<line id="Isabella" class="st40" x1="1335.9" y1="172" x2="1290.3" y2="185.7"/>
		<line id="Ossington" class="st40" x1="993.4" y1="243.6" x2="1042.4" y2="422"/>
		<line id="Augusta" class="st40" x1="1159.4" y1="290.3" x2="1174.9" y2="342.7"/>
		<line id="Ontario" class="st40" x1="1416.2" y1="273.2" x2="1390" y2="185.7"/>
		<line id="Carlaw" class="st40" x1="1646" y1="312.1" x2="1573.4" y2="73"/>
		<path id="Gerrard" class="st40" d="M1261.1,288.6l152.7-45.3c3-0.9,6.2-1,9.2-0.2h0c3.3,0.8,6.7,0.6,9.9-0.5l101.4-35l226-69"/>
		<path id="Eastern" class="st40" d="M1567.8,299.9l118-34.9c5.7-1.7,10.8-5.1,14.5-9.7l0.6-0.8c3.7-4.5,8.5-7.8,14.1-9.5l57.5-18.1
			"/>
		<line id="Leslie" class="st40" x1="1714.6" y1="272.4" x2="1701.2" y2="230.2"/>
		<line id="Greenwood" class="st40" x1="1736.5" y1="218.2" x2="1684.3" y2="41.4"/>
		<line id="Danforth" class="st40" x1="1487.7" y1="97.3" x2="1830" y2="0"/>
		<path id="GardinerStephen" class="st40" d="M630.5,535.4c25.5-11.1,41.8-6.2,60.4-17.5"/>
	</g>
</g>
<g id="Trips">
	<path id="_x32_0150503_1_" class="st41" d="M557.7,567.7l-225.9,69.2l-63.7-214.7"/>
	<path id="_x32_0150506" class="st41" d="M402.7,870l-9-56.8c-4.6-29.4-12.8-58.1-24.2-85.6l-37.7-90.8l225.9-69.2"/>
	<path id="_x32_0150510" class="st41" d="M557.7,567.7c25.2-8.5,49.5-19.3,72.8-32.3c25.5-11.1,41.8-6.2,60.4-17.5
		c34.3-23.8,76.9-32.2,117.7-23.3l104.1,22.8c49.4,10.8,100.9,7.2,148.3-10.3l0.3-0.1c20.4-7.5,41.7-12,63.4-13.2l58.2-3.3
		c13.6-0.8,27.1-2.8,40.4-6l17.8-4.3l-85.6-284.6l-55.9,16.5"/>
	<path id="_x32_0150530" class="st41" d="M1395.2,371.3l-38.2,28.2c-0.6,0.5-1.2,0.9-1.9,1.3l7.7,25.7c-4.9,2.6-9.7,5.3-14.4,8.2
		l-26,16c-17.5,10.8-36.6,18.7-56.6,23.5l-42.6,10.3l17.8-4.3l-17.8,4.3c-13.2,3.2-26.8,5.2-40.4,6l-58.2,3.3
		c-21.7,1.2-43,5.7-63.4,13.2l-0.3,0.1c-47.4,17.5-98.9,21.1-148.3,10.3l-104.1-22.8c-40.8-8.9-83.4-0.5-117.7,23.3
		c-18.5,11.3-34.9,6.4-60.4,17.5c-23.3,12.9-47.6,23.7-72.8,32.3"/>
	<path id="_x32_0150531_1_" class="st41" d="M557.7,567.7c25.2-8.5,49.5-19.3,72.8-32.3c25.5-11.1,41.8-6.2,60.4-17.5
		c34.3-23.8,76.9-32.2,117.7-23.3l104.1,22.8c49.4,10.8,100.9,7.2,148.3-10.3l0.3-0.1c20.4-7.5,41.7-12,63.4-13.2l58.2-3.3
		c13.6-0.8,27.1-2.8,40.4-6l17.8-4.3l-17.8,4.3l42.6-10.3c20-4.8,39.1-12.8,56.6-23.5l26-16c4.7-2.9,9.5-5.6,14.4-8.2
		c10.9-5.7,22.2-10.5,33.8-14.5l9.6-3.3l-11.2-37.5"/>
</g>
</svg>
