<?xml version="1.0" encoding="utf-8"?>
<!-- Generator: Adobe Illustrator 19.0.0, SVG Export Plug-In . SVG Version: 6.00 Build 0)  -->
<svg version="1.1" xmlns="http://www.w3.org/2000/svg" xmlns:xlink="http://www.w3.org/1999/xlink" x="0px" y="0px"
	 viewBox="0 0 6000 2000" style="enable-background:new 0 0 6000 2000;" xml:space="preserve">
<style type="text/css">
	.st0{display:none;fill:#1D1F29;stroke:#D2DDBB;stroke-miterlimit:10;}
	.st1{fill:none;stroke:#000000;stroke-miterlimit:10;}
</style>
<g id="assets">
	<rect id="bg" class="st0" width="6000" height="2000"/>
	<g id="gta.psd_1_">
		
			<image style="overflow:visible;" width="7114" height="2882" id="gta_2_" xlink:href="3C64D071.png"  transform="matrix(1 0 0 1 -267.8333 -842.1667)">
		</image>
	</g>
</g>
<g id="Guides">
	<g id="Misc">
	</g>
</g>
<g id="streets">
	<path id="yonge_1_" class="st1" d="M4275,200v1000"/>
	<path id="universityNorthRight" class="st1" d="M4100,300c0,0,50,0,50,50s0,50,0,100s-50,50-50,50"/>
	<path id="universityNorthLeft" class="st1" d="M4100,300c0,0-50,0-50,50s0,50,0,100s50,50,50,50"/>
	<path id="unversity" class="st1" d="M4100,500v700"/>
	<path id="stephen_2_" class="st1" d="M1725,800V450"/>
	<path id="spadina_2_" class="st1" d="M3850,200v1000"/>
	<path id="roncesvalles_1_" class="st1" d="M2650,200v600"/>
	<path id="queen_1_" class="st1" d="M2650,800h3000"/>
	<path id="queenswayCurve_1_" class="st1" d="M1900,800c100,0,200-150,400-150s275,150,350,150"/>
	<path id="queensway_2_" class="st1" d="M100,800h1800"/>
	<path id="princeEdward_2_" class="st1" d="M1425,550V100"/>
	<path id="parklawn_2_" class="st1" d="M1575,800V350"/>
	<path id="ossington_1_" class="st1" d="M3325,800V200"/>
	<path id="landsdowne_1_" class="st1" d="M2900,200v600"/>
	<path id="lakeshoreEast_2_" class="st1" d="M5650,975c0,0,0,0-175,0s-375,225-575,225c-50,0-2000,0-2000,0"/>
	<path id="lakeshoreCurve_1_" class="st1" d="M1275,1550c300,0,625-800,1025-800c275,0,350,450,600,450"/>
	<path id="lakeshoreWest_1_" class="st1" d="M1275,1550H100"/>
	<path id="islington_2_" class="st1" d="M1000,100v1450"/>
	<path id="kipling_1_" class="st1" d="M700,100v1450"/>
	<path id="royalYork_2_" class="st1" d="M1275,100v1450"/>
	<line id="jarvis_2_" class="st1" x1="4400" y1="200" x2="4400" y2="1100"/>
	<path id="gardinerEast_2_" class="st1" d="M2900,1100h1750"/>
	<path id="gardinerCurve_1_" class="st1" d="M1725,900c175,0,375-200,575-200c300,0,400,400,600,400"/>
	<path id="gardinerWest_2_" class="st1" d="M100,900h1625"/>
	<polyline id="front" class="st1" points="3675,1025 4275,1025 4400,975 4650,975 	"/>
	<path id="evans_1_" class="st1" d="M1275,975H100"/>
	<path id="dvp_2_" class="st1" d="M4900,100v700c0,175-50,300-250,300"/>
	<path id="dundas" class="st1" d="M3325,650h2325"/>
	<path id="dunadsCurve" class="st1" d="M2650,200c0,450,675,450,675,450"/>
	<path id="dufferin_1_" class="st1" d="M3100,200v600"/>
	<path id="brownsline_1_" class="st1" d="M100,1550c0,0,0-450,0-575"/>
	<path id="bloorEast_2_" class="st1" d="M1900,200h2500"/>
	<path id="bloorCurve_1_" class="st1" d="M1900,200c-175,0-175-100-325-100"/>
	<path id="bloorWest_2_" class="st1" d="M100,100h1475"/>
	<path id="berry_2_" class="st1" d="M1350,550h425"/>
	<path id="bathurst_1_" class="st1" d="M3675,200v1000"/>
	<path id="avenue" class="st1" d="M4100,200v100"/>
</g>
</svg>
